<?xml version="1.0" standalone="no"?>
<!DOCTYPE svg PUBLIC "-//W3C//DTD SVG 1.1//EN" "http://www.w3.org/Graphics/SVG/1.1/DTD/svg11.dtd" >
<svg xmlns="http://www.w3.org/2000/svg" xmlns:xlink="http://www.w3.org/1999/xlink" version="1.1">
<metadata>
Created by FontForge 20150824 at Fri Oct 14 06:32:10 2016
 By Everything Fonts
Copyright (c) 1990, 1991, 2002 Adobe Systems Incorporated.  All Rights Reserved.(c) 1990, 1991, 2002 Heidelberger Druckmaschinen AG. All rights reserved.
</metadata>
<defs>
<font id="HelveticaRoundedLTStdBd" horiz-adv-x="611" >
  <font-face 
    font-family="HelveticaRoundedLTStdBd"
    font-weight="700"
    font-stretch="normal"
    units-per-em="1000"
    panose-1="2 15 8 4 3 5 3 2 2 4"
    ascent="733"
    descent="-267"
    x-height="523"
    cap-height="733"
    bbox="-141 -214 990 963"
    underline-thickness="50"
    underline-position="-150"
    unicode-range="U+0020-FB02"
  />
<missing-glyph horiz-adv-x="500" 
d="M0 0v700h500v-700h-500zM250 395l170 255h-340zM280 350l170 -255v510zM80 50h340l-170 255zM50 605v-510l170 255z" />
    <glyph glyph-name="fi" unicode="fi" 
d="M96 60v367h-25q-58 0 -58 48t58 48h25v73q0 75 36 108t117 33q88 0 88 -66q0 -25 -14 -39.5t-35 -14.5q-4 0 -13 1.5t-13 1.5q-20 0 -20 -32v-65h36q59 0 59 -48t-59 -48h-36v-367q0 -35 -19.5 -54t-53.5 -19t-53.5 19t-19.5 54zM399 60v403q0 73 73 73t73 -73v-403
q0 -73 -73 -73t-73 73zM396 661q0 31 22 53.5t54 22.5t54 -22.5t22 -53.5t-22 -53.5t-54 -22.5t-54 22.5t-22 53.5z" />
    <glyph glyph-name="fl" unicode="fl" 
d="M96 60v367h-25q-58 0 -58 48t58 48h25v73q0 75 36 108t117 33q88 0 88 -66q0 -25 -14 -39.5t-35 -14.5q-4 0 -13 1.5t-13 1.5q-20 0 -20 -32v-65h36q59 0 59 -48t-59 -48h-36v-367q0 -35 -19.5 -54t-53.5 -19t-53.5 19t-19.5 54zM399 60v600q0 35 19.5 54t53.5 19
t53.5 -19t19.5 -54v-600q0 -35 -19.5 -54t-53.5 -19t-53.5 19t-19.5 54z" />
    <glyph glyph-name=".notdef" horiz-adv-x="500" 
d="M0 0v700h500v-700h-500zM250 395l170 255h-340zM280 350l170 -255v510zM80 50h340l-170 255zM50 605v-510l170 255z" />
    <glyph glyph-name=".null" horiz-adv-x="0" 
 />
    <glyph glyph-name="nonmarkingreturn" horiz-adv-x="333" 
 />
    <glyph glyph-name="space" unicode=" " horiz-adv-x="306" 
 />
    <glyph glyph-name="exclam" unicode="!" horiz-adv-x="316" 
d="M237 656v-116q0 -15 -4 -47l-31 -234q-3 -21 -13.5 -29t-30.5 -8t-30.5 8t-13.5 29l-31 234q-4 32 -4 47v116q0 77 79 77t79 -77zM76 75q0 34 24 58t58 24t58 -24t24 -58t-24 -58t-58 -24t-58 24t-24 58z" />
    <glyph glyph-name="quotedbl" unicode="&#x22;" horiz-adv-x="537" 
d="M299 500v163q0 31 18 50.5t48 19.5t48 -19.5t18 -50.5v-163q0 -31 -18 -50.5t-48 -19.5t-48 19.5t-18 50.5zM106 500v163q0 31 18 50.5t48 19.5t48 -19.5t18 -50.5v-163q0 -31 -18 -50.5t-48 -19.5t-48 19.5t-18 50.5z" />
    <glyph glyph-name="numbersign" unicode="#" horiz-adv-x="612" 
d="M152 289l16 120h-38q-24 0 -36 14t-12 34t12 34t36 14h52l21 154q7 52 56 52q19 0 32.5 -11.5t13.5 -29.5q0 -6 -3 -35l-18 -130h88l21 154q7 52 56 52q19 0 32.5 -11.5t13.5 -29.5q0 -6 -3 -35l-18 -130h38q24 0 36 -14t12 -34t-12 -34t-36 -14h-52l-16 -120h38
q24 0 36 -14t12 -34t-12 -34t-36 -14h-52l-21 -154q-7 -52 -56 -52q-19 0 -32.5 11.5t-13.5 29.5q0 6 3 35l18 130h-88l-21 -154q-7 -52 -56 -52q-19 0 -32.5 11.5t-13.5 29.5q0 6 3 35l18 130h-38q-24 0 -36 14t-12 34t12 34t36 14h52zM342 289l16 120h-88l-16 -120h88z
" />
    <glyph glyph-name="dollar" unicode="$" horiz-adv-x="612" 
d="M278 89v209q-238 43 -238 203q0 97 69 152t169 58v23q0 13 9 23.5t21 10.5t21 -10.5t9 -23.5v-23q31 -1 70 -11t77.5 -27.5t64.5 -46.5t26 -64q0 -28 -18 -45t-45 -17q-21 0 -39 17t-31 37t-40.5 37t-64.5 18v-190q58 -12 96 -25t76.5 -37.5t57.5 -64t19 -94.5
q0 -98 -66.5 -151t-182.5 -60v-62q0 -13 -9 -23.5t-21 -10.5t-21 10.5t-9 23.5v62q-118 3 -185.5 60t-67.5 124q0 30 16.5 46.5t45.5 16.5q26 0 41.5 -10.5t21 -26t13 -33.5t17 -34t34.5 -27.5t64 -13.5zM278 430v179q-49 -1 -80.5 -26.5t-31.5 -58.5q0 -72 112 -94z
M338 287v-198q51 3 87 27.5t36 70.5q0 24 -11 42t-31.5 29.5t-38 17t-42.5 11.5z" />
    <glyph glyph-name="percent" unicode="%" horiz-adv-x="1000" 
d="M79 520q0 87 41 139t127 52t127 -52t41 -139t-41 -139t-127 -52t-127 52t-41 139zM187 520q0 -113 60 -113t60 113t-60 113t-60 -113zM585 178q0 87 41 139t127 52t127 -52t41 -139t-41 -139t-127 -52t-127 52t-41 139zM693 178q0 -113 60 -113t60 113t-60 113t-60 -113z
M287 29l360 680q15 28 39 28q16 0 27.5 -10.5t11.5 -23.5q0 -14 -11 -34l-360 -680q-15 -28 -39 -28q-16 0 -27.5 10.5t-11.5 23.5q0 14 11 34z" />
    <glyph glyph-name="ampersand" unicode="&#x26;" horiz-adv-x="704" 
d="M414 373l100 -117l12 24t14.5 28t12.5 20q23 31 52 31q25 0 45 -17t20 -40q0 -26 -23 -67t-51 -67l60 -72q14 -17 14 -40q0 -25 -20.5 -44t-54.5 -19q-25 0 -49 28l-46 53q-90 -87 -232 -87q-110 0 -167 59.5t-57 139.5q0 143 157 220q-34 38 -51.5 70t-17.5 73
q0 83 58 130.5t142 47.5q56 0 98.5 -16.5t65 -43t33 -55.5t10.5 -59q0 -57 -34.5 -105t-90.5 -75zM420 162l-131 155q-99 -55 -99 -119q0 -43 26.5 -70t71.5 -27q64 0 132 61zM264 561q0 -24 10.5 -44t21.5 -31t35 -31q25 15 37.5 24t28.5 31.5t16 48.5q0 27 -21.5 46.5
t-53.5 19.5t-53 -18.5t-21 -45.5z" />
    <glyph glyph-name="quotesingle" unicode="'" horiz-adv-x="316" 
d="M92 500v163q0 31 18 50.5t48 19.5t48 -19.5t18 -50.5v-163q0 -31 -18 -50.5t-48 -19.5t-48 19.5t-18 50.5z" />
    <glyph glyph-name="parenleft" unicode="(" horiz-adv-x="333" 
d="M67 268q0 150 71 319q42 99 61 124.5t46 25.5q22 0 37 -13.5t15 -32.5q0 -16 -22.5 -78t-45 -156t-22.5 -189t22.5 -189t45 -156t22.5 -78q0 -19 -15 -32.5t-37 -13.5q-27 0 -46 25.5t-61 124.5q-71 169 -71 319z" />
    <glyph glyph-name="parenright" unicode=")" horiz-adv-x="333" 
d="M266 268q0 -150 -71 -319q-42 -99 -61 -124.5t-46 -25.5q-22 0 -37 13.5t-15 32.5q0 16 22.5 78t45 156t22.5 189t-22.5 189t-45 156t-22.5 78q0 19 15 32.5t37 13.5q27 0 46 -25.5t61 -124.5q71 -169 71 -319z" />
    <glyph glyph-name="asterisk" unicode="*" horiz-adv-x="464" 
d="M190 599v89q0 45 42 45t42 -45v-89l78 28q16 6 26 6q13 0 27 -12t14 -33q0 -29 -35 -39l-88 -26l60 -78q12 -15 12 -29q0 -22 -15.5 -32t-29.5 -10q-24 0 -34 16l-57 85l-57 -85q-10 -16 -34 -16q-14 0 -29.5 10t-15.5 32q0 14 12 29l60 78l-88 26q-35 10 -35 39
q0 21 14 33t27 12q10 0 26 -6z" />
    <glyph glyph-name="plus" unicode="+" horiz-adv-x="600" 
d="M240 343v153q0 31 16.5 50.5t43.5 19.5t43.5 -19.5t16.5 -50.5v-153h153q31 0 50.5 -16.5t19.5 -43.5t-19.5 -43.5t-50.5 -16.5h-153v-153q0 -31 -16.5 -50.5t-43.5 -19.5t-43.5 19.5t-16.5 50.5v153h-153q-30 0 -50 18t-20 42q0 27 19.5 43.5t50.5 16.5h153z" />
    <glyph glyph-name="comma" unicode="," horiz-adv-x="306" 
d="M71 75q0 34 24 58t58 24q46 0 70 -35.5t24 -90.5q0 -48 -12.5 -77.5t-38.5 -56.5q-14 -13 -42 -28t-49 -15q-16 0 -25 8.5t-9 21.5q0 14 16 23.5t35 16t36 27.5t19 56q-16 -9 -34 -9q-33 0 -52.5 22.5t-19.5 54.5z" />
    <glyph glyph-name="hyphen" unicode="-" horiz-adv-x="407" 
d="M121 345h165q81 0 81 -69t-81 -69h-165q-81 0 -81 69t81 69z" />
    <glyph glyph-name="period" unicode="." horiz-adv-x="306" 
d="M71 75q0 34 24 58t58 24t58 -24t24 -58t-24 -58t-58 -24t-58 24t-24 58z" />
    <glyph glyph-name="slash" unicode="/" horiz-adv-x="370" 
d="M16 67l239 629q15 41 55 41q19 0 35.5 -14.5t16.5 -36.5q0 -11 -8 -33l-239 -629q-15 -41 -55 -41q-19 0 -35.5 14.5t-16.5 36.5q0 11 8 33z" />
    <glyph glyph-name="zero" unicode="0" horiz-adv-x="612" 
d="M185 349q0 -130 30.5 -186t90.5 -56t90.5 56t30.5 186q0 242 -121 242t-121 -242zM39 358q0 173 71 263t196 90t196 -90t71 -263q0 -57 -7.5 -107t-26 -99.5t-48 -85t-77 -57.5t-108.5 -22t-108.5 22t-77 57.5t-48 85t-26 99.5t-7.5 107z" />
    <glyph glyph-name="one" unicode="1" horiz-adv-x="407" 
d="M171 75v380h-129q-26 0 -38.5 11.5t-12.5 41.5q0 27 15.5 38t56.5 19l37 8q37 8 60.5 31.5t32 46.5t26.5 41.5t46 18.5q58 0 58 -68v-568q0 -88 -76 -88t-76 88z" />
    <glyph glyph-name="two" unicode="2" horiz-adv-x="593" 
d="M196 126h300q66 0 66 -63t-74 -63h-375q-40 0 -61 22t-21 52q0 110 188 229q18 11 47.5 29.5t41 26t31 21t26.5 20.5t18 18.5t14 21t6 22.5t3 28q0 47 -30.5 74t-74.5 27q-50 0 -81.5 -24t-47.5 -82q-8 -30 -21.5 -43t-41.5 -13q-73 0 -73 67q0 91 78 153t189 62
q113 0 184 -61t71 -136q0 -93 -39 -144t-128 -101q-98 -56 -142 -86.5t-53 -56.5z" />
    <glyph glyph-name="three" unicode="3" horiz-adv-x="593" 
d="M31 160q0 31 20 50.5t51 19.5q21 0 35 -9t20.5 -23t16 -29.5t19.5 -29.5t33 -23t55 -9q55 0 85 30t30 78q0 81 -90 90q-16 2 -25.5 3.5t-25.5 7t-24 16.5t-8 27q0 37 20.5 50.5t66.5 15.5q76 5 76 78q0 43 -28.5 65.5t-71.5 22.5q-33 0 -56 -11.5t-34.5 -28.5t-21 -34
t-24 -28.5t-36.5 -11.5q-29 0 -48 14.5t-19 45.5q0 57 41.5 98.5t94.5 58.5t106 17q121 0 179 -56t58 -138q0 -94 -85 -140q107 -30 107 -156q0 -113 -76.5 -173.5t-193.5 -60.5q-66 0 -117 18.5t-77.5 47t-39.5 56t-13 51.5z" />
    <glyph glyph-name="four" unicode="4" 
d="M340 274v259h-2l-193 -259h195zM340 57v103h-251q-36 0 -56 21t-20 48q0 34 19 59l308 395q21 28 65 28q75 0 75 -72v-365h50q25 0 40.5 -16t15.5 -41t-15.5 -41t-40.5 -16h-50v-103q0 -70 -70 -70t-70 70z" />
    <glyph glyph-name="five" unicode="5" horiz-adv-x="593" 
d="M47 422l36 213q5 26 22.5 44.5t41.5 18.5h300q66 0 66 -63t-64 -63h-255l-27 -150l2 -2q53 46 139 46q100 0 168.5 -60t68.5 -170q0 -118 -76.5 -183.5t-199.5 -65.5q-117 0 -177 46.5t-60 95.5q0 30 20 49.5t52 19.5q20 0 37 -15t29.5 -33.5t38.5 -33.5t62 -15
q55 0 91.5 38.5t36.5 89.5q0 61 -37.5 92t-97.5 31q-43 0 -87.5 -24.5t-65.5 -24.5q-30 0 -49.5 16.5t-19.5 49.5q0 25 5 53z" />
    <glyph glyph-name="six" unicode="6" horiz-adv-x="612" 
d="M185 410v-18q67 64 156 64q109 0 170.5 -63t61.5 -158q0 -119 -72.5 -183.5t-186.5 -64.5q-61 0 -109.5 18.5t-79 49.5t-50.5 73.5t-28 87t-8 94.5q0 213 77 307t224 94q85 0 142.5 -40t57.5 -89q0 -27 -18.5 -46t-44.5 -19q-22 0 -40 13.5t-29.5 29.5t-32.5 29.5
t-48 13.5q-72 0 -107 -57t-35 -136zM194 225q0 -58 31.5 -91t85.5 -33t85 33t31 91q0 61 -32 92t-84 31q-51 0 -84 -33t-33 -90z" />
    <glyph glyph-name="seven" unicode="7" horiz-adv-x="574" 
d="M76 698h406q69 0 69 -72q0 -21 -17.5 -44.5t-47.5 -59t-63.5 -86.5t-72 -148t-66.5 -222q-10 -46 -25 -62.5t-49 -16.5q-73 0 -73 76q0 79 84.5 252t175.5 257h-323q-64 0 -64 63t66 63z" />
    <glyph glyph-name="eight" unicode="8" horiz-adv-x="612" 
d="M39 211q0 59 29 102t84 61q-43 20 -68 60t-25 87q0 84 66.5 137t180.5 53t180.5 -53t66.5 -137q0 -47 -25 -87t-68 -60q55 -18 84 -61t29 -102q0 -60 -24 -105.5t-64 -70.5t-85 -36.5t-94 -11.5t-94 11.5t-85 36.5t-64 70.5t-24 105.5zM185 210q0 -51 33.5 -80t87.5 -29
t87.5 29t33.5 80q0 41 -30 77t-91 36t-91 -36t-30 -77zM199 511q0 -45 29.5 -68.5t77.5 -23.5t77.5 23.5t29.5 68.5q0 43 -30 67.5t-77 24.5t-77 -24.5t-30 -67.5z" />
    <glyph glyph-name="nine" unicode="9" horiz-adv-x="612" 
d="M427 288v18q-67 -64 -156 -64q-109 0 -170.5 63t-61.5 158q0 119 72.5 183.5t186.5 64.5q61 0 109.5 -18.5t79 -49.5t50.5 -73.5t28 -87t8 -94.5q0 -213 -77 -307t-224 -94q-85 0 -142.5 40t-57.5 89q0 27 18.5 46t44.5 19q22 0 40 -13.5t29.5 -29.5t32.5 -29.5t48 -13.5
q72 0 107 57t35 136zM418 473q0 58 -31.5 91t-85.5 33t-85 -33t-31 -91q0 -61 32 -92t84 -31q51 0 84 33t33 90z" />
    <glyph glyph-name="colon" unicode=":" horiz-adv-x="306" 
d="M71 441q0 34 24 58t58 24t58 -24t24 -58t-24 -58t-58 -24t-58 24t-24 58zM71 75q0 34 24 58t58 24t58 -24t24 -58t-24 -58t-58 -24t-58 24t-24 58z" />
    <glyph glyph-name="semicolon" unicode=";" horiz-adv-x="306" 
d="M71 75q0 34 24 58t58 24q46 0 70 -35.5t24 -90.5q0 -48 -12.5 -77.5t-38.5 -56.5q-14 -13 -42 -28t-49 -15q-16 0 -25 8.5t-9 21.5q0 14 16 23.5t35 16t36 27.5t19 56q-16 -9 -34 -9q-33 0 -52.5 22.5t-19.5 54.5zM71 441q0 34 24 58t58 24t58 -24t24 -58t-24 -58
t-58 -24t-58 24t-24 58z" />
    <glyph glyph-name="less" unicode="&#x3c;" horiz-adv-x="600" 
d="M530 424l-322 -141l322 -141q47 -20 47 -63q0 -24 -15.5 -39t-39.5 -15q-26 0 -55 14l-407 187q-37 18 -37 57t37 57l407 187q29 14 55 14q24 0 39.5 -15t15.5 -39q0 -43 -47 -63z" />
    <glyph glyph-name="equal" unicode="=" horiz-adv-x="600" 
d="M87 461h426q31 0 50.5 -16.5t19.5 -43.5t-19.5 -43.5t-50.5 -16.5h-426q-30 0 -50 18t-20 42q0 27 19.5 43.5t50.5 16.5zM87 225h426q31 0 50.5 -16.5t19.5 -43.5t-19.5 -43.5t-50.5 -16.5h-426q-30 0 -50 18t-20 42q0 27 19.5 43.5t50.5 16.5z" />
    <glyph glyph-name="greater" unicode="&#x3e;" horiz-adv-x="600" 
d="M70 142l322 141l-322 141q-47 20 -47 63q0 24 15.5 39t39.5 15q26 0 55 -14l407 -187q37 -18 37 -57t-37 -57l-407 -187q-29 -14 -55 -14q-24 0 -39.5 15t-15.5 39q0 43 47 63z" />
    <glyph glyph-name="question" unicode="?" horiz-adv-x="574" 
d="M43 548q0 73 71 129t163 56q106 0 180 -50.5t74 -149.5q0 -45 -24.5 -84t-54 -61t-61.5 -45.5t-41 -36.5q-6 -9 -15.5 -35t-23 -37.5t-43.5 -11.5t-47 20.5t-17 46.5q0 40 27.5 74.5t60 55.5t60 51.5t27.5 62.5q0 40 -25.5 63t-70.5 23q-35 0 -57.5 -13.5t-32 -33
t-18 -39t-24.5 -33t-43 -13.5q-28 0 -46.5 16t-18.5 45zM190 75q0 34 24 58t58 24t58 -24t24 -58t-24 -58t-58 -24t-58 24t-24 58z" />
    <glyph glyph-name="at" unicode="@" horiz-adv-x="800" 
d="M312 336q0 -42 22.5 -65.5t57.5 -23.5q42 0 69.5 32.5t27.5 80.5q0 39 -20 62.5t-57 23.5q-43 0 -71.5 -32.5t-28.5 -77.5zM610 474l-31 -174q-6 -27 -6 -36q0 -20 19 -20q32 0 60 40t28 114q0 118 -73 183.5t-192 65.5q-115 0 -196 -84.5t-81 -203.5q0 -131 81 -208.5
t205 -77.5q51 0 91.5 10.5t60 22.5t36.5 22.5t27 10.5q15 0 26.5 -11.5t11.5 -27.5q0 -39 -87.5 -78t-165.5 -39q-165 0 -279.5 106.5t-114.5 269.5q0 161 113 269.5t275 108.5q148 0 250 -85.5t102 -224.5q0 -79 -30.5 -139.5t-74.5 -90.5t-82.5 -44t-65.5 -14
q-59 0 -60 51h-2q-44 -51 -104 -51q-63 0 -105 50.5t-42 125.5q0 101 57 170t133 69q45 0 73.5 -15t50.5 -47l4 18q8 36 48 36q19 0 31.5 -11.5t12.5 -31.5q0 -10 -4 -29z" />
    <glyph glyph-name="A" unicode="A" horiz-adv-x="667" 
d="M25 122l212 561q19 50 80 50h39q67 0 88 -60l198 -551q16 -43 16 -63q0 -30 -22.5 -51t-54.5 -21q-57 0 -74 45l-42 120h-264l-43 -120q-15 -45 -73 -45q-34 0 -55 19.5t-21 52.5q0 20 16 63zM429 266l-93 289h-2l-97 -289h192z" />
    <glyph glyph-name="B" unicode="B" horiz-adv-x="722" 
d="M76 96v528q0 52 24.5 74t71.5 22h218q263 0 263 -186q0 -48 -26 -87t-75 -59v-2q126 -33 126 -173q0 -107 -75 -160t-190 -53h-241q-47 0 -71.5 22t-24.5 74zM240 320v-194h138q136 0 136 96q0 41 -24 64t-54.5 28.5t-77.5 5.5h-118zM240 600v-176h135q114 0 114 88
t-119 88h-130z" />
    <glyph glyph-name="C" unicode="C" horiz-adv-x="722" 
d="M53 360q0 104 38.5 188t120 136.5t193.5 52.5q129 0 210 -63t81 -125q0 -35 -19 -54.5t-55 -19.5q-26 0 -44 13.5t-30.5 32.5t-28 38t-44 32.5t-70.5 13.5q-80 0 -134 -66t-54 -179q0 -108 47 -176.5t147 -68.5q36 0 63 14t43 34.5t29.5 41t31 34.5t38.5 14q32 0 56 -17
t24 -46q0 -80 -84 -143.5t-201 -63.5q-171 0 -264.5 96.5t-93.5 280.5z" />
    <glyph glyph-name="D" unicode="D" horiz-adv-x="759" 
d="M76 96v528q0 52 24.5 74t71.5 22h200q57 0 105 -10t93 -35.5t76 -65.5t50 -103.5t19 -145.5q0 -171 -91 -265.5t-255 -94.5h-197q-47 0 -71.5 22t-24.5 74zM240 588v-456h138q62 0 102.5 35t55.5 84t15 109q0 109 -43 168.5t-131 59.5h-137z" />
    <glyph glyph-name="E" unicode="E" horiz-adv-x="685" 
d="M80 96v528q0 52 24.5 74t71.5 22h385q83 0 83 -66t-83 -66h-317v-156h278q77 0 77 -63t-77 -63h-278v-174h325q83 0 83 -66t-83 -66h-393q-47 0 -71.5 22t-24.5 74z" />
    <glyph glyph-name="F" unicode="F" horiz-adv-x="630" 
d="M80 69v555q0 52 24.5 74t71.5 22h361q83 0 83 -66t-83 -66h-293v-168h248q77 0 77 -63t-77 -63h-248v-225q0 -37 -22.5 -59.5t-59.5 -22.5t-59.5 22.5t-22.5 59.5z" />
    <glyph glyph-name="G" unicode="G" horiz-adv-x="815" 
d="M744 313v-271q0 -23 -16 -39t-40 -16q-34 0 -48 21t-22 72q-77 -97 -214 -97q-92 0 -161.5 30t-110 83t-60 119t-19.5 145q0 179 102 278t273 99q124 0 201.5 -58t77.5 -115q0 -39 -22.5 -55.5t-54.5 -16.5q-22 0 -37 11.5t-26.5 28t-26.5 33.5t-46 28.5t-75 11.5
q-91 0 -146.5 -63t-55.5 -193q0 -109 53 -174.5t151 -65.5q67 0 116 41t55 106h-107q-74 0 -74 63q0 30 16.5 46.5t47.5 16.5h202q67 0 67 -69z" />
    <glyph glyph-name="H" unicode="H" horiz-adv-x="778" 
d="M76 69v582q0 37 22.5 59.5t59.5 22.5t59.5 -22.5t22.5 -59.5v-204h298v204q0 37 22.5 59.5t59.5 22.5t59.5 -22.5t22.5 -59.5v-582q0 -37 -22.5 -59.5t-59.5 -22.5t-59.5 22.5t-22.5 59.5v240h-298v-240q0 -37 -22.5 -59.5t-59.5 -22.5t-59.5 22.5t-22.5 59.5z" />
    <glyph glyph-name="I" unicode="I" horiz-adv-x="316" 
d="M76 69v582q0 37 22.5 59.5t59.5 22.5t59.5 -22.5t22.5 -59.5v-582q0 -37 -22.5 -59.5t-59.5 -22.5t-59.5 22.5t-22.5 59.5z" />
    <glyph glyph-name="J" unicode="J" horiz-adv-x="574" 
d="M498 651v-426q0 -115 -63 -178.5t-183 -63.5q-69 0 -118.5 21t-73 54.5t-33 64.5t-9.5 62q0 46 20.5 73t57.5 27q74 0 74 -95q0 -81 80 -81q84 0 84 118v424q0 37 22.5 59.5t59.5 22.5t59.5 -22.5t22.5 -59.5z" />
    <glyph glyph-name="K" unicode="K" horiz-adv-x="685" 
d="M76 69v582q0 37 22.5 59.5t59.5 22.5t59.5 -22.5t22.5 -59.5v-238l258 284q34 36 65 36t54.5 -18t23.5 -48q0 -29 -27 -56l-168 -177l199 -303q31 -48 31 -65q0 -42 -24.5 -60.5t-59.5 -18.5q-26 0 -41.5 9t-31.5 34l-189 292l-90 -90v-163q0 -37 -22.5 -59.5
t-59.5 -22.5t-59.5 22.5t-22.5 59.5z" />
    <glyph glyph-name="L" unicode="L" 
d="M76 96v555q0 37 22.5 59.5t59.5 22.5t59.5 -22.5t22.5 -59.5v-513h274q37 0 61 -18t24 -51t-24 -51t-61 -18h-342q-47 0 -71.5 22t-24.5 74z" />
    <glyph glyph-name="M" unicode="M" horiz-adv-x="888" 
d="M73 67v585q0 81 89 81h48q38 0 58.5 -17t33.5 -58l143 -462h2l141 462q13 41 33.5 58t58.5 17h46q89 0 89 -81v-585q0 -34 -18 -57t-55 -23t-55 23t-18 57v446h-2l-153 -478q-16 -48 -70 -48t-70 48l-153 478h-2v-446q0 -34 -18 -57t-55 -23t-55 23t-18 57z" />
    <glyph glyph-name="N" unicode="N" horiz-adv-x="778" 
d="M73 66v571q0 50 25 73t78 23q56 0 82 -43l287 -463h2v427q0 79 79 79t79 -79v-565q0 -102 -97 -102q-38 0 -56 9t-34 35l-285 450h-2v-415q0 -79 -79 -79t-79 79z" />
    <glyph glyph-name="O" unicode="O" horiz-adv-x="816" 
d="M44 369q0 163 96 265.5t268 102.5t268 -102.5t96 -265.5q0 -78 -23 -146.5t-66.5 -122.5t-114.5 -85.5t-160 -31.5q-184 0 -274 106t-90 280zM208 369q0 -254 200 -254q105 0 152.5 70t47.5 184q0 107 -51.5 171.5t-148.5 64.5t-148.5 -64.5t-51.5 -171.5z" />
    <glyph glyph-name="P" unicode="P" horiz-adv-x="704" 
d="M76 69v555q0 52 24.5 74t71.5 22h251q111 0 180 -57t69 -171q0 -101 -66.5 -164.5t-183.5 -63.5h-182v-195q0 -37 -22.5 -59.5t-59.5 -22.5t-59.5 22.5t-22.5 59.5zM240 594v-204h153q50 0 82.5 28t32.5 74q0 102 -132 102h-136z" />
    <glyph glyph-name="Q" unicode="Q" horiz-adv-x="816" 
d="M44 369q0 163 96 265.5t268 102.5t268 -102.5t96 -265.5q0 -175 -99 -278l63 -59q13 -11 13 -28q0 -22 -17.5 -41.5t-38.5 -19.5q-24 0 -47 21l-63 59q-75 -40 -175 -40q-184 0 -274 106t-90 280zM208 369q0 -254 200 -254q38 0 66 9l-56 52q-13 11 -13 28
q0 22 17.5 41.5t38.5 19.5q24 0 47 -21l57 -52q43 64 43 177q0 107 -51.5 171.5t-148.5 64.5t-148.5 -64.5t-51.5 -171.5z" />
    <glyph glyph-name="R" unicode="R" horiz-adv-x="741" 
d="M76 69v555q0 52 24.5 74t71.5 22h273q70 0 120.5 -17.5t77 -48t38 -63.5t11.5 -71q0 -61 -33.5 -110.5t-90.5 -62.5v-2q58 -8 78.5 -45.5t20.5 -100.5q0 -48 11 -92.5t11 -55.5q0 -27 -23.5 -45.5t-53.5 -18.5q-31 0 -52.5 13.5t-30 34.5t-11.5 36.5t-3 31.5
q0 98 -23.5 137.5t-89.5 39.5h-162v-211q0 -37 -22.5 -59.5t-59.5 -22.5t-59.5 22.5t-22.5 59.5zM240 594v-194h164q124 0 124 97q0 54 -30 75.5t-89 21.5h-169z" />
    <glyph glyph-name="S" unicode="S" horiz-adv-x="685" 
d="M316 448l137 -31q188 -43 188 -207q0 -102 -76 -164.5t-220 -62.5q-143 0 -222 57t-79 125q0 30 19.5 49t49.5 19q24 0 41.5 -13.5t31.5 -32.5t31 -38t49.5 -32.5t78.5 -13.5q61 0 96.5 28.5t35.5 66.5q0 58 -70 75l-185 47q-54 14 -90 35.5t-54 49t-25 54t-7 58.5
q0 76 44 127.5t106 72t137 20.5q101 0 190 -49.5t89 -118.5q0 -30 -22 -47.5t-53 -17.5q-21 0 -36.5 11t-28.5 27t-29.5 31.5t-47.5 26.5t-73 11q-56 0 -87 -23.5t-31 -61.5q0 -23 19 -40t39 -23.5t54 -14.5z" />
    <glyph glyph-name="T" unicode="T" horiz-adv-x="668" 
d="M252 69v513h-155q-37 0 -61 18t-24 51t24 51t61 18h474q37 0 61 -18t24 -51t-24 -51t-61 -18h-155v-513q0 -37 -22.5 -59.5t-59.5 -22.5t-59.5 22.5t-22.5 59.5z" />
    <glyph glyph-name="U" unicode="U" horiz-adv-x="778" 
d="M76 270v381q0 37 22.5 59.5t59.5 22.5t59.5 -22.5t22.5 -59.5v-394q0 -142 149 -142t149 142v394q0 37 22.5 59.5t59.5 22.5t59.5 -22.5t22.5 -59.5v-381q0 -144 -82.5 -215.5t-230.5 -71.5t-230.5 71.5t-82.5 215.5z" />
    <glyph glyph-name="V" unicode="V" horiz-adv-x="648" 
d="M629 612l-208 -568q-12 -33 -35.5 -45t-64.5 -12t-64.5 12t-35.5 45l-202 568q-10 27 -10 48q0 38 24 55.5t59 17.5q61 0 83 -72l148 -490h2l154 490q22 72 77 72q35 0 59 -17.5t24 -55.5q0 -21 -10 -48z" />
    <glyph glyph-name="W" unicode="W" horiz-adv-x="926" 
d="M909 612l-141 -547q-11 -43 -33 -60.5t-66 -17.5q-45 0 -66 19t-32 62l-107 439h-2l-107 -439q-10 -43 -31.5 -62t-66.5 -19q-44 0 -66 17.5t-33 60.5l-141 547q-8 30 -8 47q0 35 24 54.5t55 19.5q63 0 77 -67l97 -478h2l112 484q7 32 25 46.5t61 14.5q47 0 65.5 -19
t27.5 -59l109 -467h2l98 478q14 67 74 67q31 0 55 -19.5t24 -54.5q0 -17 -8 -47z" />
    <glyph glyph-name="X" unicode="X" horiz-adv-x="592" 
d="M33 120l172 251l-157 235q-17 26 -17 50q0 32 23.5 54.5t58.5 22.5q44 0 68 -40l119 -205l127 205q14 22 27.5 31t39.5 9q33 0 56 -18.5t23 -55.5q0 -23 -15 -44l-167 -244l163 -245q27 -41 27 -58q0 -38 -24 -59.5t-60 -21.5q-46 0 -69 38l-132 221l-142 -227
q-19 -32 -64 -32q-36 0 -57.5 20t-21.5 50q0 31 22 63z" />
    <glyph glyph-name="Y" unicode="Y" horiz-adv-x="612" 
d="M224 69v212l-201 334q-14 23 -14 43q0 38 26.5 56.5t56.5 18.5q28 0 44.5 -11.5t29.5 -36.5l143 -263l142 263q14 27 29.5 37.5t41.5 10.5q29 0 55 -18.5t26 -56.5q0 -20 -14 -43l-201 -334v-212q0 -37 -22.5 -59.5t-59.5 -22.5t-59.5 22.5t-22.5 59.5z" />
    <glyph glyph-name="Z" unicode="Z" horiz-adv-x="685" 
d="M57 144l371 438h-286q-37 0 -61 18t-24 51t24 51t61 18h432q76 0 76 -75q0 -33 -23 -59l-377 -448h320q37 0 61 -18t24 -51t-24 -51t-61 -18h-445q-47 0 -71 18.5t-24 62.5q0 31 27 63z" />
    <glyph glyph-name="bracketleft" unicode="[" horiz-adv-x="352" 
d="M219 612v-688h70q61 0 61 -54t-61 -54h-121q-81 0 -81 84v736q0 84 81 84h121q61 0 61 -54t-61 -54h-70z" />
    <glyph glyph-name="backslash" unicode="\" horiz-adv-x="370" 
d="M115 696l239 -629q8 -22 8 -33q0 -22 -16.5 -36.5t-35.5 -14.5q-40 0 -55 41l-239 629q-8 22 -8 33q0 22 16.5 36.5t35.5 14.5q40 0 55 -41z" />
    <glyph glyph-name="bracketright" unicode="]" horiz-adv-x="352" 
d="M133 -76v688h-70q-61 0 -61 54t61 54h121q81 0 81 -84v-736q0 -84 -81 -84h-121q-61 0 -61 54t61 54h70z" />
    <glyph glyph-name="asciicircum" unicode="^" horiz-adv-x="600" 
d="M413 335l-113 207l-113 -207q-13 -23 -28.5 -31.5t-40.5 -8.5q-51 0 -51 36q0 19 13 44l154 280q23 43 66 43t66 -43l154 -280q13 -25 13 -44q0 -36 -51 -36q-25 0 -40.5 8.5t-28.5 31.5z" />
    <glyph glyph-name="underscore" unicode="_" horiz-adv-x="500" 
d="M500 -125h-500q-29 0 -29 25t29 25h500q29 0 29 -25t-29 -25z" />
    <glyph glyph-name="grave" unicode="`" horiz-adv-x="278" 
d="M121 727l74 -57q29 -24 29 -48t-15.5 -36.5t-35.5 -12.5t-46 18l-90 61q-37 25 -37 54q0 19 13.5 37t40.5 18q25 0 67 -34z" />
    <glyph glyph-name="a" unicode="a" 
d="M543 386v-245q0 -35 7.5 -63t7.5 -35q0 -24 -19.5 -40t-46.5 -16q-82 0 -86 85q-77 -85 -200 -85q-66 0 -115.5 41.5t-49.5 107.5q0 44 15.5 75t45 49.5t63.5 28.5t80 15l89 10q31 4 47 14.5t16 39.5q0 30 -26 45t-66 15q-37 0 -64 -12.5t-39.5 -27.5t-29.5 -27.5
t-36 -12.5q-27 0 -44.5 16.5t-17.5 39.5q0 49 63.5 90.5t168.5 41.5q110 0 173.5 -37t63.5 -113zM397 189v57q-16 -15 -63 -23l-53 -8q-48 -7 -71 -23.5t-23 -48.5q0 -25 22 -42.5t59 -17.5q58 0 93.5 31.5t35.5 74.5z" />
    <glyph glyph-name="b" unicode="b" 
d="M58 56v604q0 35 19.5 54t53.5 19t53.5 -19t19.5 -54v-198h2q46 74 144 74q109 0 167 -78.5t58 -192.5q0 -135 -65.5 -206.5t-163.5 -71.5q-118 0 -154 92h-2v-23q0 -69 -66 -69t-66 69zM429 260q0 28 -5.5 54.5t-17.5 51.5t-36 40.5t-57 15.5q-61 1 -89 -47.5t-28 -114.5
q0 -69 28.5 -114t88.5 -45q56 1 86 46t30 113z" />
    <glyph glyph-name="c" unicode="c" horiz-adv-x="537" 
d="M30 251q0 129 71.5 207t202.5 78q89 0 151 -42t62 -95q0 -30 -19.5 -46.5t-48.5 -16.5q-23 0 -38 13.5t-23 29.5t-30.5 29.5t-57.5 13.5q-51 0 -87.5 -40.5t-36.5 -130.5q0 -69 32 -109.5t91 -40.5q34 0 56.5 14.5t31.5 32.5t26.5 32.5t42.5 14.5q27 0 44 -16.5t17 -39.5
q0 -55 -59 -103.5t-163 -48.5q-130 0 -197.5 72t-67.5 192z" />
    <glyph glyph-name="d" unicode="d" 
d="M553 660v-604q0 -69 -66 -69t-66 69v23h-2q-36 -92 -154 -92q-98 0 -163.5 71.5t-65.5 206.5q0 114 58 192.5t167 78.5q98 0 144 -74h2v198q0 35 19.5 54t53.5 19t53.5 -19t19.5 -54zM182 260q0 -68 30 -113t86 -46q60 0 88.5 45t28.5 114q0 66 -28 114.5t-89 47.5
q-33 0 -57 -15.5t-36 -40.5t-17.5 -51.5t-5.5 -54.5z" />
    <glyph glyph-name="e" unicode="e" horiz-adv-x="612" 
d="M512 234h-330q0 -59 36 -96t99 -37q37 0 64 11.5t39.5 24.5t29.5 24.5t36 11.5q25 0 42.5 -18t17.5 -39q0 -41 -40 -72t-90.5 -44t-98.5 -13q-73 0 -129.5 23t-88 62t-47.5 84.5t-16 95.5q0 129 74 206.5t202 77.5q120 0 192 -71.5t72 -167.5q0 -37 -13.5 -50t-50.5 -13z
M182 318h256q-6 51 -40.5 83.5t-82.5 32.5q-107 0 -133 -116z" />
    <glyph glyph-name="f" unicode="f" horiz-adv-x="370" 
d="M104 60v367h-33q-58 0 -58 48t58 48h33v73q0 66 47 103.5t114 37.5q42 0 69 -17.5t27 -52.5q0 -20 -14 -35t-33 -15q-6 0 -16 1.5t-16 1.5q-32 0 -32 -34v-63h45q66 0 66 -48t-66 -48h-45v-367q0 -35 -19.5 -54t-53.5 -19t-53.5 19t-19.5 54z" />
    <glyph glyph-name="g" unicode="g" 
d="M182 263q0 -57 29 -99t87 -42q52 0 83.5 36.5t31.5 110.5q0 153 -108 153q-123 0 -123 -159zM553 467v-424q0 -127 -70.5 -192t-189.5 -65q-86 0 -153 34.5t-67 86.5q0 27 17.5 44.5t42.5 17.5t46.5 -18.5t47.5 -37.5t61 -19q67 0 96 37t29 123v30h-2q-20 -30 -59.5 -50
t-81.5 -20q-113 0 -173.5 66.5t-60.5 177.5q0 135 65.5 206.5t163.5 71.5q53 0 93.5 -23t60.5 -64h2v18q0 69 66 69t66 -69z" />
    <glyph glyph-name="h" unicode="h" 
d="M58 60v600q0 35 19.5 54t53.5 19t53.5 -19t19.5 -54v-201h2q59 77 163 77q35 0 66 -9.5t58.5 -30.5t43.5 -60t16 -92v-284q0 -73 -73 -73t-73 73v255q0 46 -23 73.5t-69 27.5q-42 0 -76.5 -32t-34.5 -83v-241q0 -73 -73 -73t-73 73z" />
    <glyph glyph-name="i" unicode="i" horiz-adv-x="278" 
d="M66 60v403q0 73 73 73t73 -73v-403q0 -73 -73 -73t-73 73zM63 661q0 31 22.5 53.5t53.5 22.5t53.5 -22.5t22.5 -53.5t-22.5 -53.5t-53.5 -22.5t-53.5 22.5t-22.5 53.5z" />
    <glyph glyph-name="j" unicode="j" horiz-adv-x="278" 
d="M66 -67v530q0 73 73 73t73 -73v-515q0 -80 -34.5 -117.5t-114.5 -37.5t-80 63q0 51 46 51h16q21 0 21 26zM63 661q0 31 22.5 53.5t53.5 22.5t53.5 -22.5t22.5 -53.5t-22.5 -53.5t-53.5 -22.5t-53.5 22.5t-22.5 53.5z" />
    <glyph glyph-name="k" unicode="k" horiz-adv-x="537" 
d="M58 60v600q0 35 19.5 54t53.5 19t53.5 -19t19.5 -54v-332l162 180q26 28 56 28q26 0 47.5 -19.5t21.5 -46.5q0 -12 -3.5 -21.5t-6.5 -13t-12 -13.5l-108 -113l152 -204q15 -21 15 -47q0 -28 -20 -49.5t-49 -21.5q-43 0 -66 34l-138 195l-51 -45v-111q0 -35 -19.5 -54
t-53.5 -19t-53.5 19t-19.5 54z" />
    <glyph glyph-name="l" unicode="l" horiz-adv-x="278" 
d="M66 60v600q0 35 19.5 54t53.5 19t53.5 -19t19.5 -54v-600q0 -35 -19.5 -54t-53.5 -19t-53.5 19t-19.5 54z" />
    <glyph glyph-name="m" unicode="m" horiz-adv-x="926" 
d="M58 60v403q0 33 18.5 53t50.5 20t50.5 -20t18.5 -53v-19h2q29 44 75 68t101 24q43 0 82 -22t58 -70q66 92 172 92q82 0 132 -42t50 -135v-299q0 -73 -73 -73t-73 73v262q0 42 -19.5 68t-60.5 26q-43 0 -74.5 -31.5t-31.5 -81.5v-243q0 -73 -73 -73t-73 73v262
q0 42 -19.5 68t-60.5 26q-43 0 -74.5 -31.5t-31.5 -81.5v-243q0 -73 -73 -73t-73 73z" />
    <glyph glyph-name="n" unicode="n" 
d="M58 60v403q0 73 66 73t66 -73v-19h2q70 92 177 92q35 0 66 -9.5t58.5 -30.5t43.5 -60t16 -92v-284q0 -73 -73 -73t-73 73v255q0 46 -23 73.5t-69 27.5q-42 0 -76.5 -32t-34.5 -83v-241q0 -73 -73 -73t-73 73z" />
    <glyph glyph-name="o" unicode="o" horiz-adv-x="612" 
d="M182 262q0 -72 31 -119.5t93 -47.5t93 47.5t31 119.5q0 75 -31.5 120.5t-92.5 45.5t-92.5 -45.5t-31.5 -120.5zM36 262q0 120 71 197t199 77t199 -77t71 -197q0 -57 -14.5 -105t-45.5 -87t-84.5 -61t-125.5 -22t-125.5 22t-84.5 61t-45.5 87t-14.5 105z" />
    <glyph glyph-name="p" unicode="p" 
d="M58 -134v601q0 69 66 69t66 -69v-23h2q36 92 154 92q98 0 163.5 -71.5t65.5 -206.5q0 -114 -58 -192.5t-167 -78.5q-101 0 -144 74h-2v-195q0 -35 -19.5 -54t-53.5 -19t-53.5 19t-19.5 54zM429 263q0 68 -30 113t-86 46q-60 0 -88.5 -45t-28.5 -114q0 -66 28 -114.5
t89 -47.5q33 0 57 15.5t36 40.5t17.5 51.5t5.5 54.5z" />
    <glyph glyph-name="q" unicode="q" 
d="M553 467v-601q0 -35 -19.5 -54t-53.5 -19t-53.5 19t-19.5 54v195h-2q-43 -74 -144 -74q-109 0 -167 78.5t-58 192.5q0 135 65.5 206.5t163.5 71.5q118 0 154 -92h2v23q0 69 66 69t66 -69zM182 263q0 -28 5.5 -54.5t17.5 -51.5t36 -40.5t57 -15.5q61 -1 89 47.5t28 114.5
q0 69 -28.5 114t-88.5 45q-56 -1 -86 -46t-30 -113z" />
    <glyph glyph-name="r" unicode="r" horiz-adv-x="407" 
d="M66 60v408q0 32 18.5 50t47.5 18t47.5 -18t18.5 -50v-56h2q35 124 121 124q35 0 57.5 -20t22.5 -51q0 -38 -21 -55.5t-51 -17.5h-26q-46 0 -68.5 -37t-22.5 -125v-170q0 -73 -73 -73t-73 73z" />
    <glyph glyph-name="s" unicode="s" horiz-adv-x="537" 
d="M35 373q0 82 66 122.5t153 40.5t155 -31.5t68 -79.5q0 -27 -16.5 -45.5t-44.5 -18.5q-23 0 -41.5 16.5t-44.5 33.5t-65 17q-84 0 -84 -45q0 -23 18.5 -33t59.5 -19l61 -14q37 -8 64.5 -18.5t56.5 -28t45 -45.5t16 -64q0 -84 -67 -129t-158 -45q-99 0 -170.5 38.5
t-71.5 92.5q0 26 15 43.5t44 17.5q21 0 39.5 -14t32 -31t41.5 -31t64 -14q38 0 61.5 15t23.5 38q0 18 -12.5 29t-24.5 14.5t-47 12.5l-86 21q-73 18 -112 52t-39 102z" />
    <glyph glyph-name="t" unicode="t" horiz-adv-x="370" 
d="M96 117v310h-25q-58 0 -58 48t58 48h25v89q0 35 19.5 54t53.5 19t53.5 -19t19.5 -54v-89h44q66 0 66 -48t-66 -48h-44v-292q0 -34 38 -34h21q24 0 37.5 -13t13.5 -36q0 -65 -106 -65q-78 0 -114 32t-36 98z" />
    <glyph glyph-name="u" unicode="u" 
d="M553 463v-403q0 -73 -66 -73t-66 73v19h-2q-70 -92 -177 -92q-35 0 -66 9.5t-58.5 30.5t-43.5 60t-16 92v284q0 73 73 73t73 -73v-255q0 -46 23 -73.5t69 -27.5q42 0 76.5 32t34.5 83v241q0 73 73 73t73 -73z" />
    <glyph glyph-name="v" unicode="v" horiz-adv-x="500" 
d="M154 39l-138 384q-9 27 -9 37q0 37 21 56.5t50 19.5q57 0 73 -61l98 -330h2l98 330q16 61 73 61q29 0 50 -19.5t21 -56.5q0 -10 -9 -37l-138 -384q-11 -32 -27.5 -42t-68.5 -10t-68.5 10t-27.5 42z" />
    <glyph glyph-name="w" unicode="w" horiz-adv-x="778" 
d="M130 66l-107 348q-10 32 -10 54q0 28 21.5 48t49.5 20q37 0 50 -16.5t22 -54.5l77 -320h2l62 291q6 26 10.5 40.5t14 30.5t26 23t41.5 6q25 1 42 -6t27.5 -22.5t15.5 -30.5t11 -41l63 -291h2l72 320q8 38 21.5 54.5t50.5 16.5q28 0 49.5 -20t21.5 -48q0 -22 -10 -54
l-107 -348q-15 -51 -33 -65t-62 -14t-61.5 15.5t-29.5 60.5l-72 287h-2l-72 -287q-12 -45 -29.5 -60.5t-61.5 -15.5t-62 14t-33 65z" />
    <glyph glyph-name="x" unicode="x" horiz-adv-x="481" 
d="M240 169l-96 -153q-19 -29 -57 -29q-27 0 -49 19.5t-22 48.5q0 18 20 47l112 165l-105 158q-15 21 -15 38q0 27 20.5 50t57.5 23t59 -37l82 -135l79 129q26 43 67 43q26 0 46 -19t20 -44q0 -27 -15 -49l-106 -157l113 -168q14 -19 14 -44q0 -28 -20 -48t-54 -20
q-37 0 -67 48z" />
    <glyph glyph-name="y" unicode="y" horiz-adv-x="500" 
d="M158 481l94 -341h2l89 331q18 65 70 65q38 0 56.5 -23t18.5 -43q0 -16 -11 -46l-169 -479q-28 -80 -64.5 -116t-102.5 -36q-46 0 -69 19t-23 48q0 28 18.5 43.5t48.5 15.5h15q13 0 20 1.5t16.5 12.5t14.5 32l-152 433q-18 52 -18 68q0 30 20.5 50t50.5 20q60 0 75 -55z
" />
    <glyph glyph-name="z" unicode="z" horiz-adv-x="556" 
d="M49 110l275 299h-211q-24 0 -41.5 14t-17.5 43t17.5 43t41.5 14h347q29 0 44.5 -17.5t15.5 -46.5q0 -24 -23 -49l-270 -296h240q24 0 41.5 -14t17.5 -43t-17.5 -43t-41.5 -14h-372q-31 0 -48 17t-17 40q0 33 19 53z" />
    <glyph glyph-name="braceleft" unicode="{" horiz-adv-x="352" 
d="M233 570v-200q0 -32 -10.5 -53.5t-30 -30.5t-32.5 -12t-32 -5v-2q19 -2 32 -5t32.5 -12t30 -30.5t10.5 -53.5v-200q0 -60 47 -60h25q45 0 45 -45q0 -21 -12.5 -33t-32.5 -12h-74q-66 0 -98 32.5t-32 100.5v204q0 41 -13.5 54t-37.5 13q-23 0 -35.5 14t-12.5 34t12.5 34
t35.5 14q15 0 25 3.5t18 19t8 44.5v204q0 68 32 100.5t98 32.5h74q20 0 32.5 -12t12.5 -33q0 -45 -45 -45h-25q-47 0 -47 -60z" />
    <glyph glyph-name="bar" unicode="|" horiz-adv-x="222" 
d="M51 48v624q0 28 15.5 46.5t44.5 18.5t44.5 -18.5t15.5 -46.5v-624q0 -28 -15.5 -46.5t-44.5 -18.5t-44.5 18.5t-15.5 46.5z" />
    <glyph glyph-name="braceright" unicode="}" horiz-adv-x="352" 
d="M119 -34v200q0 32 10.5 53.5t30 30.5t32.5 12t32 5v2q-19 2 -32 5t-32.5 12t-30 30.5t-10.5 53.5v200q0 60 -47 60h-25q-45 0 -45 45q0 21 12.5 33t32.5 12h74q66 0 98 -32.5t32 -100.5v-204q0 -41 13.5 -54t37.5 -13q23 0 35.5 -14t12.5 -34t-12.5 -34t-35.5 -14
q-15 0 -25 -3.5t-18 -19t-8 -44.5v-204q0 -68 -32 -100.5t-98 -32.5h-74q-20 0 -32.5 12t-12.5 33q0 45 45 45h25q47 0 47 60z" />
    <glyph glyph-name="asciitilde" unicode="~" horiz-adv-x="600" 
d="M559 321q0 -49 -41 -90.5t-106 -41.5q-43 0 -119 34t-98 34q-29 0 -60.5 -30t-50.5 -30q-22 0 -32.5 14t-10.5 34q0 49 40 90.5t101 41.5q47 0 124.5 -34t98.5 -34q29 0 60.5 30t50.5 30q22 0 32.5 -14t10.5 -34z" />
    <glyph glyph-name="uni00A0" unicode="&#xa0;" horiz-adv-x="306" 
 />
    <glyph glyph-name="exclamdown" unicode="&#xa1;" horiz-adv-x="316" 
d="M79 -130v116q0 15 4 47l31 234q3 21 13.5 29t30.5 8t30.5 -8t13.5 -29l31 -234q4 -32 4 -47v-116q0 -77 -79 -77t-79 77zM240 451q0 -34 -24 -58t-58 -24t-58 24t-24 58t24 58t58 24t58 -24t24 -58z" />
    <glyph glyph-name="cent" unicode="&#xa2;" horiz-adv-x="612" 
d="M302 106v310q-39 -11 -64 -51t-25 -114q0 -58 23 -96.5t66 -48.5zM302 -81v70q-116 8 -175.5 79t-59.5 183q0 119 61 195t174 87v66q0 13 9 23.5t21 10.5t21 -10.5t9 -23.5v-64q82 -6 137 -46.5t55 -89.5q0 -30 -19.5 -46.5t-48.5 -16.5q-21 0 -35 11t-21.5 25.5
t-25 28.5t-42.5 18v-315q24 5 41.5 20.5t25.5 31t24.5 27.5t39.5 12q27 0 44 -16.5t17 -39.5q0 -50 -51 -96t-141 -54v-70q0 -13 -9 -23.5t-21 -10.5t-21 10.5t-9 23.5z" />
    <glyph glyph-name="sterling" unicode="&#xa3;" horiz-adv-x="612" 
d="M261 393h109q62 0 62 -48t-62 -48h-79q5 -13 5 -24q0 -80 -102 -157l2 -2q5 2 24.5 10t27.5 11t25 6.5t34 3.5q34 0 81 -10t71 -10q9 0 37.5 5.5t36.5 5.5q27 0 42.5 -18t15.5 -46q0 -43 -34 -64t-81 -21q-32 0 -108 19t-122 19q-48 0 -80 -19q-4 -2 -12 -6.5t-12.5 -6.5
t-11.5 -4t-14 -2q-30 0 -47 19.5t-17 49.5q0 18 10.5 35t26 32t31 32t26 41t10.5 51q0 23 -11 50h-53q-54 0 -54 48t47 48h21q-30 43 -30 107q0 92 72 151.5t179 59.5q122 0 191 -53t69 -119q0 -33 -20.5 -51.5t-54.5 -18.5q-24 0 -38 12.5t-21.5 30.5t-16.5 36t-32.5 30.5
t-60.5 12.5q-47 0 -81 -27t-34 -73q0 -36 33 -98z" />
    <glyph glyph-name="currency" unicode="&#xa4;" horiz-adv-x="612" 
d="M67 182l27 26q-43 64 -43 141q0 76 42 141l-27 25q-15 16 -15 36t16 36.5t36 16.5q25 0 42 -17l23 -24q65 41 138 41q75 0 138 -41l23 24q17 17 42 17q21 0 36.5 -16t15.5 -37q0 -20 -15 -35l-27 -26q42 -65 42 -141t-42 -141l27 -26q15 -15 15 -35q0 -21 -15.5 -37
t-36.5 -16q-25 0 -42 17l-24 24q-63 -41 -137 -41t-137 41l-24 -24q-17 -17 -42 -17q-20 0 -36 16.5t-16 36.5t16 35zM171 349q0 -59 39.5 -100t95.5 -41t95.5 41t39.5 100t-39.5 100t-95.5 41t-95.5 -41t-39.5 -100z" />
    <glyph glyph-name="yen" unicode="&#xa5;" horiz-adv-x="612" 
d="M227 67v99h-124q-17 0 -28 11t-11 28t11 28t28 11h124v29l-17 29h-107q-17 0 -28 11t-11 28t11 28t28 11h61l-132 217q-14 24 -14 41q0 37 27 55t59 18q44 0 68 -47l134 -255l134 255q24 47 68 47q32 0 59 -18t27 -55q0 -17 -14 -41l-132 -217h61q17 0 28 -11t11 -28
t-11 -28t-28 -11h-107l-17 -29v-29h124q17 0 28 -11t11 -28t-11 -28t-28 -11h-124v-99q0 -36 -21 -58t-58 -22t-58 22t-21 58z" />
    <glyph glyph-name="brokenbar" unicode="&#xa6;" horiz-adv-x="222" 
d="M51 45v189q0 27 15.5 44.5t44.5 17.5t44.5 -17.5t15.5 -44.5v-189q0 -27 -15.5 -44.5t-44.5 -17.5t-44.5 17.5t-15.5 44.5zM51 486v189q0 27 15.5 44.5t44.5 17.5t44.5 -17.5t15.5 -44.5v-189q0 -27 -15.5 -44.5t-44.5 -17.5t-44.5 17.5t-15.5 44.5z" />
    <glyph glyph-name="section" unicode="&#xa7;" 
d="M320 485l85 -44q78 -39 114 -80t36 -102q0 -54 -27 -93.5t-74 -60.5q61 -35 61 -115q0 -82 -60 -128.5t-144 -46.5q-106 0 -161.5 48t-55.5 98q0 24 15.5 40.5t41.5 16.5q22 0 38 -16.5t25.5 -37t33 -37t58.5 -16.5q32 0 57.5 16t25.5 49q0 8 -2 15t-6.5 14t-9 12.5
t-13.5 11.5t-15.5 10.5t-19.5 11.5t-21 11l-24 12l-26 13q-97 48 -127 72q-69 53 -69 132q0 56 27 91.5t80 64.5q-28 18 -44.5 47t-16.5 60q0 88 60 135.5t149 47.5t144.5 -47t55.5 -98q0 -24 -16 -41.5t-40 -17.5q-23 0 -38 17t-22 37t-29 37t-58 17q-38 0 -59 -20t-21 -45
q0 -9 3 -18t6 -15.5t11 -13.5t12 -11t15 -10.5t14.5 -8t16.5 -7.5t14 -7zM209 248l170 -92q24 6 43 28t19 54q0 26 -14 44t-49 36l-147 78q-20 -13 -29 -20.5t-20.5 -24.5t-11.5 -37q0 -18 11 -37.5t28 -28.5z" />
    <glyph glyph-name="dieresis" unicode="&#xa8;" horiz-adv-x="278" 
d="M-36 662q0 30 21.5 51.5t51.5 21.5t51.5 -21.5t21.5 -51.5t-21.5 -51.5t-51.5 -21.5t-51.5 21.5t-21.5 51.5zM168 662q0 30 21.5 51.5t51.5 21.5t51.5 -21.5t21.5 -51.5t-21.5 -51.5t-51.5 -21.5t-51.5 21.5t-21.5 51.5z" />
    <glyph glyph-name="copyright" unicode="&#xa9;" horiz-adv-x="800" 
d="M23 360q0 115 54 202.5t138.5 131t184.5 43.5q99 0 184 -43.5t139 -131t54 -202.5t-54 -202.5t-139 -131t-184 -43.5q-100 0 -184.5 43.5t-138.5 131t-54 202.5zM137 360q0 -126 75.5 -206.5t187.5 -80.5q111 0 187 81t76 206t-76 206t-187 81q-112 0 -187.5 -80.5
t-75.5 -206.5zM214 363q0 95 54 156.5t145 61.5q74 0 120.5 -39t46.5 -83q0 -25 -14 -37.5t-28 -12.5q-22 0 -34 13t-17 28t-23.5 28t-50.5 13q-41 0 -66 -34t-25 -92q0 -57 25.5 -93t67.5 -36q29 0 47.5 13.5t25 29t20 29t34.5 13.5q19 0 30.5 -12t11.5 -32q0 -37 -48 -84
t-121 -47q-89 0 -145 62t-56 155z" />
    <glyph glyph-name="ordfeminine" unicode="&#xaa;" horiz-adv-x="397" 
d="M355 621v-147q0 -21 5 -38t5 -21q0 -15 -13.5 -24.5t-31.5 -9.5q-54 0 -56 51q-50 -51 -130 -51q-43 0 -75.5 25t-32.5 65q0 50 34.5 71t98.5 29l58 7q12 2 19 4t12 9t5 19q0 35 -55 35q-29 0 -48 -11.5t-32.5 -23.5t-29.5 -12q-19 0 -30.5 9.5t-11.5 23.5
q0 29 41.5 54.5t111.5 25.5q72 0 114 -22.5t42 -67.5zM253 506v31q-10 -9 -36 -14l-34 -5q-55 -9 -55 -39q0 -32 46 -32q37 0 58 17t21 42z" />
    <glyph glyph-name="guillemotleft" unicode="&#xab;" horiz-adv-x="593" 
d="M257 332l-82 -56l82 -56q32 -21 32 -52q0 -21 -13.5 -36.5t-33.5 -15.5q-16 0 -39 16l-98 71q-34 24 -34 73t34 73l98 71q23 16 39 16q20 0 33.5 -15.5t13.5 -36.5q0 -31 -32 -52zM490 332l-82 -56l82 -56q32 -21 32 -52q0 -21 -13.5 -36.5t-33.5 -15.5q-16 0 -39 16
l-98 71q-34 24 -34 73t34 73l98 71q23 16 39 16q20 0 33.5 -15.5t13.5 -36.5q0 -31 -32 -52z" />
    <glyph glyph-name="logicalnot" unicode="&#xac;" horiz-adv-x="600" 
d="M463 184v157h-376q-30 0 -50 18t-20 42q0 27 19.5 43.5t50.5 16.5h416q44 0 62 -17t18 -57v-203q0 -31 -16.5 -50.5t-43.5 -19.5t-43.5 19.5t-16.5 50.5z" />
    <glyph glyph-name="uni00AD" unicode="&#xad;" horiz-adv-x="407" 
d="M121 345h165q81 0 81 -69t-81 -69h-165q-81 0 -81 69t81 69z" />
    <glyph glyph-name="registered" unicode="&#xae;" horiz-adv-x="800" 
d="M23 360q0 115 54 202.5t139 131t184 43.5t184 -43.5t139 -131t54 -202.5t-54 -202.5t-139 -131t-184 -43.5t-184 43.5t-139 131t-54 202.5zM137 360q0 -126 75.5 -206.5t187.5 -80.5q111 0 187 81t76 206t-76 206t-187 81q-112 0 -187.5 -80.5t-75.5 -206.5zM251 210v307
q0 21 13 33t32 12h127q72 0 108.5 -27t36.5 -94q0 -52 -27.5 -82t-65.5 -32l66 -88q13 -18 13 -40q0 -13 -12.5 -24t-30.5 -11q-30 0 -52 32l-92 131h-26v-117q0 -22 -12.5 -34t-32.5 -12q-19 0 -32 12t-13 34zM341 490v-91h77q54 0 54 46q0 45 -54 45h-77z" />
    <glyph glyph-name="macron" unicode="&#xaf;" horiz-adv-x="278" 
d="M6 707h266q23 0 36.5 -12t13.5 -33t-13.5 -33t-36.5 -12h-266q-23 0 -36.5 12t-13.5 33t13.5 33t36.5 12z" />
    <glyph glyph-name="degree" unicode="&#xb0;" horiz-adv-x="400" 
d="M129 568q0 -28 21.5 -49.5t49.5 -21.5t49.5 21.5t21.5 49.5t-21.5 49.5t-49.5 21.5t-49.5 -21.5t-21.5 -49.5zM57 568q0 60 41.5 101.5t101.5 41.5t101.5 -41.5t41.5 -101.5t-41.5 -101.5t-101.5 -41.5t-101.5 41.5t-41.5 101.5z" />
    <glyph glyph-name="plusminus" unicode="&#xb1;" horiz-adv-x="600" 
d="M240 424v72q0 31 16.5 50.5t43.5 19.5t43.5 -19.5t16.5 -50.5v-72h153q31 0 50.5 -16.5t19.5 -43.5q0 -24 -20 -42t-50 -18h-153v-72q0 -31 -16.5 -50.5t-43.5 -19.5t-43.5 19.5t-16.5 50.5v72h-153q-30 0 -50 18t-20 42q0 27 19.5 43.5t50.5 16.5h153zM87 120h426
q31 0 50.5 -16.5t19.5 -43.5q0 -24 -20 -42t-50 -18h-426q-30 0 -50 18t-20 42q0 27 19.5 43.5t50.5 16.5z" />
    <glyph glyph-name="twosuperior" unicode="&#xb2;" horiz-adv-x="385" 
d="M141 373h176q48 0 48 -45t-48 -45h-244q-26 0 -39.5 14.5t-13.5 36.5q0 65 116 132q10 6 25.5 14.5t22 12.5t18 11t16 10.5t12 9t10 9.5t6.5 9.5t5.5 10.5t2.5 11.5t1 13.5q0 22 -19 35.5t-46 13.5q-59 0 -78 -52q-7 -19 -15 -26.5t-26 -7.5q-48 0 -48 41q0 54 51 91.5
t123 37.5q76 0 121 -33.5t45 -85.5q0 -56 -23 -87t-78 -60q-104 -54 -116 -66q-3 -3 -5 -6z" />
    <glyph glyph-name="threesuperior" unicode="&#xb3;" horiz-adv-x="385" 
d="M15 380q0 19 13.5 30.5t35.5 11.5q19 0 30 -9.5t15.5 -21.5t21.5 -21.5t46 -9.5q35 0 53.5 15t18.5 38q0 45 -56 51q-54 6 -54 35q0 25 13 33t44 10q43 3 43 44q0 19 -17 30t-42 11t-41 -9t-22 -19.5t-17.5 -19.5t-28.5 -9q-46 0 -46 36q0 50 51 77.5t109 27.5
q82 0 122 -34t40 -83q0 -57 -62 -83v-2q72 -16 72 -92q0 -68 -50.5 -104.5t-128.5 -36.5q-83 0 -123 34.5t-40 69.5z" />
    <glyph glyph-name="acute" unicode="&#xb4;" horiz-adv-x="278" 
d="M83 670l74 57q43 34 67 34q27 0 40.5 -18t13.5 -37q0 -29 -37 -54l-90 -61q-26 -18 -46 -18t-35.5 12.5t-15.5 36.5t29 48z" />
    <glyph glyph-name="mu" unicode="&#xb5;" 
d="M553 463v-403q0 -73 -66 -73t-66 73v19h-2q-31 -41 -73.5 -66.5t-83.5 -25.5q-43 0 -58 13v-134q0 -35 -19.5 -54t-53.5 -19t-53.5 19t-19.5 54v597q0 73 73 73t73 -73v-255q0 -46 23 -73.5t69 -27.5q42 0 76.5 32t34.5 83v241q0 73 73 73t73 -73z" />
    <glyph glyph-name="paragraph" unicode="&#xb6;" horiz-adv-x="620" 
d="M233 -112v483q-108 0 -165.5 45t-57.5 126q0 100 64.5 139t181.5 39h254q28 0 44 -16.5t16 -43.5v-772q0 -27 -16 -43.5t-44 -16.5t-44 16.5t-16 43.5v742h-97v-742q0 -27 -16 -43.5t-44 -16.5t-44 16.5t-16 43.5z" />
    <glyph glyph-name="periodcentered" unicode="&#xb7;" horiz-adv-x="306" 
d="M65 290q0 37 25.5 62.5t62.5 25.5t62.5 -25.5t25.5 -62.5t-25.5 -62.5t-62.5 -25.5t-62.5 25.5t-25.5 62.5z" />
    <glyph glyph-name="cedilla" unicode="&#xb8;" horiz-adv-x="278" 
d="M76 -59l39 59h56l-37 -55h7q94 0 94 -70q0 -40 -35.5 -64.5t-85.5 -24.5q-41 0 -62 12.5t-21 28.5q0 10 7 18t17 8q4 0 24 -5.5t31 -5.5q16 0 25.5 9t9.5 23q0 26 -25 26q-8 0 -18.5 -1.5t-13.5 -1.5q-23 0 -23 20q0 6 11 24z" />
    <glyph glyph-name="onesuperior" unicode="&#xb9;" horiz-adv-x="265" 
d="M102 333v213h-79q-35 0 -35 37q0 20 9.5 27t37.5 12l24 4q23 4 38 18.5t20 29t17.5 26t31.5 11.5q44 0 44 -41v-337q0 -53 -54 -53t-54 53z" />
    <glyph glyph-name="ordmasculine" unicode="&#xba;" horiz-adv-x="398" 
d="M125 546q0 -43 18.5 -71t55.5 -28t55.5 28t18.5 71q0 45 -18.5 72t-55.5 27t-55.5 -27t-18.5 -72zM23 546q0 72 46.5 118.5t129.5 46.5t129.5 -46.5t46.5 -118.5t-42.5 -118.5t-133.5 -46.5t-133.5 46.5t-42.5 118.5z" />
    <glyph glyph-name="guillemotright" unicode="&#xbb;" horiz-adv-x="593" 
d="M336 220l82 56l-82 56q-32 21 -32 52q0 21 13.5 36.5t33.5 15.5q16 0 39 -16l98 -71q34 -24 34 -73t-34 -73l-98 -71q-23 -16 -39 -16q-20 0 -33.5 15.5t-13.5 36.5q0 31 32 52zM103 220l82 56l-82 56q-32 21 -32 52q0 21 13.5 36.5t33.5 15.5q16 0 39 -16l98 -71
q34 -24 34 -73t-34 -73l-98 -71q-23 -16 -39 -16q-20 0 -33.5 15.5t-13.5 36.5q0 31 32 52z" />
    <glyph glyph-name="onequarter" unicode="&#xbc;" horiz-adv-x="916" 
d="M722 169v145h-2l-114 -145h116zM722 38v53h-161q-24 0 -37 13.5t-13 29.5q0 24 10 36l188 229q23 28 60 28q24 0 39.5 -12.5t15.5 -33.5v-212h24q16 0 26 -11t10 -28t-10 -28t-26 -11h-24v-53q0 -42 -51 -42t-51 42zM184 29l360 680q15 28 39 28q16 0 27.5 -10.5
t11.5 -23.5q0 -14 -11 -34l-360 -680q-15 -28 -39 -28q-16 0 -27.5 10.5t-11.5 23.5q0 14 11 34zM102 333v213h-79q-35 0 -35 37q0 20 9.5 27t37.5 12l24 4q23 4 38 18.5t20 29t17.5 26t31.5 11.5q44 0 44 -41v-337q0 -53 -54 -53t-54 53z" />
    <glyph glyph-name="onehalf" unicode="&#xbd;" horiz-adv-x="916" 
d="M184 29l360 680q15 28 39 28q16 0 27.5 -10.5t11.5 -23.5q0 -14 -11 -34l-360 -680q-15 -28 -39 -28q-16 0 -27.5 10.5t-11.5 23.5q0 14 11 34zM660 90h176q48 0 48 -45t-48 -45h-244q-26 0 -39.5 14.5t-13.5 36.5q0 65 116 132q10 6 25.5 14.5t22 12.5t18 11t16 10.5
t12 9t10 9.5t6.5 9.5t5.5 10.5t2.5 11.5t1 13.5q0 22 -19 35.5t-46 13.5q-59 0 -78 -52q-7 -19 -15 -26.5t-26 -7.5q-48 0 -48 41q0 54 51 91.5t123 37.5q76 0 121 -33.5t45 -85.5q0 -56 -23 -87t-78 -60l-22 -11q-90 -48 -99 -61zM102 333v213h-79q-35 0 -35 37
q0 20 9.5 27t37.5 12l24 4q23 4 38 18.5t20 29t17.5 26t31.5 11.5q44 0 44 -41v-337q0 -53 -54 -53t-54 53z" />
    <glyph glyph-name="threequarters" unicode="&#xbe;" horiz-adv-x="916" 
d="M722 169v145h-2l-114 -145h116zM722 38v53h-161q-24 0 -37 13.5t-13 29.5q0 24 10 36l188 229q23 28 60 28q24 0 39.5 -12.5t15.5 -33.5v-212h24q16 0 26 -11t10 -28t-10 -28t-26 -11h-24v-53q0 -42 -51 -42t-51 42zM255 29l360 680q15 28 39 28q16 0 27.5 -10.5
t11.5 -23.5q0 -14 -11 -34l-360 -680q-15 -28 -39 -28q-16 0 -27.5 10.5t-11.5 23.5q0 14 11 34zM15 380q0 19 13.5 30.5t35.5 11.5q19 0 30 -9.5t15.5 -21.5t21.5 -21.5t46 -9.5q35 0 53.5 15t18.5 38q0 45 -56 51q-54 6 -54 35q0 25 13 33t44 10q43 3 43 44q0 19 -17 30
t-42 11t-41 -9t-22 -19.5t-17.5 -19.5t-28.5 -9q-46 0 -46 36q0 50 51 77.5t109 27.5q82 0 122 -34t40 -83q0 -57 -62 -83v-2q72 -16 72 -92q0 -68 -50.5 -104.5t-128.5 -36.5q-83 0 -123 34.5t-40 69.5z" />
    <glyph glyph-name="questiondown" unicode="&#xbf;" horiz-adv-x="574" 
d="M531 -22q0 -73 -71 -129t-163 -56q-106 0 -180 50.5t-74 149.5q0 45 24.5 84t54 61t61.5 45.5t41 36.5q6 9 15.5 35t23 37.5t43.5 11.5t47 -20.5t17 -46.5q0 -40 -27.5 -74.5t-60 -55.5t-60 -51.5t-27.5 -62.5q0 -40 25.5 -63t70.5 -23q35 0 57.5 13.5t32 33t18 39
t24.5 33t43 13.5q28 0 46.5 -16t18.5 -45zM384 451q0 -34 -24 -58t-58 -24t-58 24t-24 58t24 58t58 24t58 -24t24 -58z" />
    <glyph glyph-name="Agrave" unicode="&#xc0;" horiz-adv-x="667" 
d="M25 122l212 561q19 50 80 50h39q67 0 88 -60l198 -551q16 -43 16 -63q0 -30 -22.5 -51t-54.5 -21q-57 0 -74 45l-42 120h-264l-43 -120q-15 -45 -73 -45q-34 0 -55 19.5t-21 52.5q0 20 16 63zM429 266l-93 289h-2l-97 -289h192zM316 909l74 -57q29 -24 29 -48
t-15.5 -36.5t-35.5 -12.5t-46 18l-90 61q-37 25 -37 54q0 19 13.5 37t40.5 18q25 0 67 -34z" />
    <glyph glyph-name="Aacute" unicode="&#xc1;" horiz-adv-x="667" 
d="M25 122l212 561q19 50 80 50h39q67 0 88 -60l198 -551q16 -43 16 -63q0 -30 -22.5 -51t-54.5 -21q-57 0 -74 45l-42 120h-264l-43 -120q-15 -45 -73 -45q-34 0 -55 19.5t-21 52.5q0 20 16 63zM429 266l-93 289h-2l-97 -289h192zM278 852l74 57q42 34 67 34q27 0 40.5 -18
t13.5 -37q0 -29 -37 -54l-90 -61q-26 -18 -46 -18t-35.5 12.5t-15.5 36.5t29 48z" />
    <glyph glyph-name="Acircumflex" unicode="&#xc2;" horiz-adv-x="667" 
d="M25 122l212 561q19 50 80 50h39q67 0 88 -60l198 -551q16 -43 16 -63q0 -30 -22.5 -51t-54.5 -21q-57 0 -74 45l-42 120h-264l-43 -120q-15 -45 -73 -45q-34 0 -55 19.5t-21 52.5q0 20 16 63zM429 266l-93 289h-2l-97 -289h192zM334 848l-64 -64q-28 -29 -53 -29
q-16 0 -30.5 15t-14.5 37q0 19 74 88q27 25 44.5 32.5t43.5 7.5t43.5 -7.5t44.5 -32.5q74 -69 74 -88q0 -22 -14.5 -37t-30.5 -15q-25 0 -53 29z" />
    <glyph glyph-name="Atilde" unicode="&#xc3;" horiz-adv-x="667" 
d="M25 122l212 561q19 50 80 50h39q67 0 88 -60l198 -551q16 -43 16 -63q0 -30 -22.5 -51t-54.5 -21q-57 0 -74 45l-42 120h-264l-43 -120q-15 -45 -73 -45q-34 0 -55 19.5t-21 52.5q0 20 16 63zM429 266l-93 289h-2l-97 -289h192zM156 831q0 34 30 59.5t64 25.5
q25 0 72 -17q44 -18 61 -18q13 0 37 18q23 17 42 17q50 0 50 -45q0 -34 -35.5 -63.5t-70.5 -29.5q-26 0 -70 18t-53 18q-17 0 -41 -18t-38 -18q-19 0 -33.5 13t-14.5 40z" />
    <glyph glyph-name="Adieresis" unicode="&#xc4;" horiz-adv-x="667" 
d="M25 122l212 561q19 50 80 50h39q67 0 88 -60l198 -551q16 -43 16 -63q0 -30 -22.5 -51t-54.5 -21q-57 0 -74 45l-42 120h-264l-43 -120q-15 -45 -73 -45q-34 0 -55 19.5t-21 52.5q0 20 16 63zM429 266l-93 289h-2l-97 -289h192zM159 844q0 30 21.5 51.5t51.5 21.5
t51.5 -21.5t21.5 -51.5t-21.5 -51.5t-51.5 -21.5t-51.5 21.5t-21.5 51.5zM363 844q0 30 21.5 51.5t51.5 21.5t51.5 -21.5t21.5 -51.5t-21.5 -51.5t-51.5 -21.5t-51.5 21.5t-21.5 51.5z" />
    <glyph glyph-name="Aring" unicode="&#xc5;" horiz-adv-x="667" 
d="M25 122l212 561q19 50 80 50h39q67 0 88 -60l198 -551q16 -43 16 -63q0 -30 -22.5 -51t-54.5 -21q-57 0 -74 45l-42 120h-264l-43 -120q-15 -45 -73 -45q-34 0 -55 19.5t-21 52.5q0 20 16 63zM429 266l-93 289h-2l-97 -289h192zM226 855q0 45 31.5 76.5t76.5 31.5
t76.5 -31.5t31.5 -76.5t-31.5 -76.5t-76.5 -31.5t-76.5 31.5t-31.5 76.5zM282 855q0 -22 15 -37t37 -15t37 15t15 37t-15 37t-37 15t-37 -15t-15 -37z" />
    <glyph glyph-name="AE" unicode="&#xc6;" horiz-adv-x="963" 
d="M416 96v64h-223l-41 -121q-17 -52 -76 -52q-29 0 -51.5 17.5t-22.5 48.5q0 26 12 58l194 548q12 34 29.5 47.5t49.5 13.5h552q83 0 83 -66t-83 -66h-259v-156h236q77 0 77 -63t-77 -63h-236v-174h267q83 0 83 -66t-83 -66h-335q-47 0 -71.5 22t-24.5 74zM416 274v320h-77
l-109 -320h186z" />
    <glyph glyph-name="Ccedilla" unicode="&#xc7;" horiz-adv-x="722" 
d="M330 -59l30 45q-147 14 -227 109t-80 265q0 104 38.5 188t120 136.5t193.5 52.5q129 0 210 -63t81 -125q0 -35 -19 -54.5t-55 -19.5q-26 0 -44 13.5t-30.5 32.5t-28 38t-44 32.5t-70.5 13.5q-80 0 -134 -66t-54 -179q0 -108 47 -176.5t147 -68.5q36 0 63 14t43 34.5
t29.5 41t31 34.5t38.5 14q32 0 56 -17t24 -46q0 -79 -83 -142.5t-199 -64.5l-26 -38h7q94 0 94 -70q0 -40 -35.5 -64.5t-85.5 -24.5q-41 0 -62 12.5t-21 28.5q0 10 7 18t17 8q4 0 24 -5.5t31 -5.5q16 0 25.5 9t9.5 23q0 26 -25 26q-8 0 -18.5 -1.5t-13.5 -1.5q-23 0 -23 20
q0 6 11 24z" />
    <glyph glyph-name="Egrave" unicode="&#xc8;" horiz-adv-x="685" 
d="M80 96v528q0 52 24.5 74t71.5 22h385q83 0 83 -66t-83 -66h-317v-156h278q77 0 77 -63t-77 -63h-278v-174h325q83 0 83 -66t-83 -66h-393q-47 0 -71.5 22t-24.5 74zM345 909l74 -57q29 -24 29 -48t-15.5 -36.5t-35.5 -12.5t-46 18l-90 61q-37 25 -37 54q0 19 13.5 37
t40.5 18q24 0 67 -34z" />
    <glyph glyph-name="Eacute" unicode="&#xc9;" horiz-adv-x="685" 
d="M80 96v528q0 52 24.5 74t71.5 22h385q83 0 83 -66t-83 -66h-317v-156h278q77 0 77 -63t-77 -63h-278v-174h325q83 0 83 -66t-83 -66h-393q-47 0 -71.5 22t-24.5 74zM307 852l74 57q42 34 67 34q27 0 40.5 -18t13.5 -37q0 -29 -37 -54l-90 -61q-26 -18 -46 -18t-35.5 12.5
t-15.5 36.5t29 48z" />
    <glyph glyph-name="Ecircumflex" unicode="&#xca;" horiz-adv-x="685" 
d="M80 96v528q0 52 24.5 74t71.5 22h385q83 0 83 -66t-83 -66h-317v-156h278q77 0 77 -63t-77 -63h-278v-174h325q83 0 83 -66t-83 -66h-393q-47 0 -71.5 22t-24.5 74zM363 848l-64 -64q-28 -29 -53 -29q-16 0 -30.5 15t-14.5 37q0 19 74 88q27 25 44.5 32.5t43.5 7.5
t43.5 -7.5t44.5 -32.5q74 -69 74 -88q0 -22 -14.5 -37t-30.5 -15q-25 0 -53 29z" />
    <glyph glyph-name="Edieresis" unicode="&#xcb;" horiz-adv-x="685" 
d="M80 96v528q0 52 24.5 74t71.5 22h385q83 0 83 -66t-83 -66h-317v-156h278q77 0 77 -63t-77 -63h-278v-174h325q83 0 83 -66t-83 -66h-393q-47 0 -71.5 22t-24.5 74zM188 844q0 30 21.5 51.5t51.5 21.5t51.5 -21.5t21.5 -51.5t-21.5 -51.5t-51.5 -21.5t-51.5 21.5
t-21.5 51.5zM392 844q0 30 21.5 51.5t51.5 21.5t51.5 -21.5t21.5 -51.5t-21.5 -51.5t-51.5 -21.5t-51.5 21.5t-21.5 51.5z" />
    <glyph glyph-name="Igrave" unicode="&#xcc;" horiz-adv-x="316" 
d="M76 69v582q0 37 22.5 59.5t59.5 22.5t59.5 -22.5t22.5 -59.5v-582q0 -37 -22.5 -59.5t-59.5 -22.5t-59.5 22.5t-22.5 59.5zM140 909l74 -57q29 -24 29 -48t-15.5 -36.5t-35.5 -12.5t-46 18l-90 61q-37 25 -37 54q0 19 13.5 37t40.5 18q25 0 67 -34z" />
    <glyph glyph-name="Iacute" unicode="&#xcd;" horiz-adv-x="316" 
d="M76 69v582q0 37 22.5 59.5t59.5 22.5t59.5 -22.5t22.5 -59.5v-582q0 -37 -22.5 -59.5t-59.5 -22.5t-59.5 22.5t-22.5 59.5zM102 852l74 57q42 34 67 34q27 0 40.5 -18t13.5 -37q0 -29 -37 -54l-90 -61q-26 -18 -46 -18t-35.5 12.5t-15.5 36.5t29 48z" />
    <glyph glyph-name="Icircumflex" unicode="&#xce;" horiz-adv-x="316" 
d="M76 69v582q0 37 22.5 59.5t59.5 22.5t59.5 -22.5t22.5 -59.5v-582q0 -37 -22.5 -59.5t-59.5 -22.5t-59.5 22.5t-22.5 59.5zM158 848l-64 -64q-28 -29 -53 -29q-16 0 -30.5 15t-14.5 37q0 19 74 88q27 25 44.5 32.5t43.5 7.5t43.5 -7.5t44.5 -32.5q74 -69 74 -88
q0 -22 -14.5 -37t-30.5 -15q-25 0 -53 29z" />
    <glyph glyph-name="Idieresis" unicode="&#xcf;" horiz-adv-x="316" 
d="M76 69v582q0 37 22.5 59.5t59.5 22.5t59.5 -22.5t22.5 -59.5v-582q0 -37 -22.5 -59.5t-59.5 -22.5t-59.5 22.5t-22.5 59.5zM-17 844q0 30 21.5 51.5t51.5 21.5t51.5 -21.5t21.5 -51.5t-21.5 -51.5t-51.5 -21.5t-51.5 21.5t-21.5 51.5zM187 844q0 30 21.5 51.5t51.5 21.5
t51.5 -21.5t21.5 -51.5t-21.5 -51.5t-51.5 -21.5t-51.5 21.5t-21.5 51.5z" />
    <glyph glyph-name="Eth" unicode="&#xd0;" horiz-adv-x="759" 
d="M240 588v-176h131q47 0 47 -45t-47 -45h-131v-190h138q62 0 102.5 35t55.5 84t15 109q0 109 -43 168.5t-131 59.5h-137zM76 96v226h-35q-47 0 -47 45t47 45h35v212q0 52 24.5 74t71.5 22h200q57 0 105 -10t93 -35.5t76 -65.5t50 -103.5t19 -145.5q0 -171 -91 -265.5
t-255 -94.5h-197q-47 0 -71.5 22t-24.5 74z" />
    <glyph glyph-name="Ntilde" unicode="&#xd1;" horiz-adv-x="778" 
d="M73 66v571q0 50 25 73t78 23q56 0 82 -43l287 -463h2v427q0 79 79 79t79 -79v-565q0 -102 -97 -102q-38 0 -56 9t-34 35l-285 450h-2v-415q0 -79 -79 -79t-79 79zM211 831q0 34 30 59.5t64 25.5q25 0 72 -17q44 -18 61 -18q13 0 37 18q23 17 42 17q50 0 50 -45
q0 -34 -35.5 -63.5t-70.5 -29.5q-27 0 -71 18t-52 18q-17 0 -41 -18t-38 -18q-19 0 -33.5 13t-14.5 40z" />
    <glyph glyph-name="Ograve" unicode="&#xd2;" horiz-adv-x="816" 
d="M44 369q0 163 96 265.5t268 102.5t268 -102.5t96 -265.5q0 -78 -23 -146.5t-66.5 -122.5t-114.5 -85.5t-160 -31.5q-184 0 -274 106t-90 280zM208 369q0 -254 200 -254q105 0 152.5 70t47.5 184q0 107 -51.5 171.5t-148.5 64.5t-148.5 -64.5t-51.5 -171.5zM390 909
l74 -57q29 -24 29 -48t-15.5 -36.5t-35.5 -12.5t-46 18l-90 61q-37 25 -37 54q0 19 13.5 37t40.5 18q25 0 67 -34z" />
    <glyph glyph-name="Oacute" unicode="&#xd3;" horiz-adv-x="816" 
d="M44 369q0 163 96 265.5t268 102.5t268 -102.5t96 -265.5q0 -78 -23 -146.5t-66.5 -122.5t-114.5 -85.5t-160 -31.5q-184 0 -274 106t-90 280zM208 369q0 -254 200 -254q105 0 152.5 70t47.5 184q0 107 -51.5 171.5t-148.5 64.5t-148.5 -64.5t-51.5 -171.5zM352 852l74 57
q42 34 67 34q27 0 40.5 -18t13.5 -37q0 -29 -37 -54l-90 -61q-26 -18 -46 -18t-35.5 12.5t-15.5 36.5t29 48z" />
    <glyph glyph-name="Ocircumflex" unicode="&#xd4;" horiz-adv-x="816" 
d="M44 369q0 163 96 265.5t268 102.5t268 -102.5t96 -265.5q0 -78 -23 -146.5t-66.5 -122.5t-114.5 -85.5t-160 -31.5q-184 0 -274 106t-90 280zM208 369q0 -254 200 -254q105 0 152.5 70t47.5 184q0 107 -51.5 171.5t-148.5 64.5t-148.5 -64.5t-51.5 -171.5zM408 848
l-64 -64q-28 -29 -53 -29q-16 0 -30.5 15t-14.5 37q0 19 74 88q27 25 44.5 32.5t43.5 7.5t43.5 -7.5t44.5 -32.5q74 -69 74 -88q0 -22 -14.5 -37t-30.5 -15q-25 0 -53 29z" />
    <glyph glyph-name="Otilde" unicode="&#xd5;" horiz-adv-x="816" 
d="M44 369q0 163 96 265.5t268 102.5t268 -102.5t96 -265.5q0 -78 -23 -146.5t-66.5 -122.5t-114.5 -85.5t-160 -31.5q-184 0 -274 106t-90 280zM208 369q0 -254 200 -254q105 0 152.5 70t47.5 184q0 107 -51.5 171.5t-148.5 64.5t-148.5 -64.5t-51.5 -171.5zM230 831
q0 34 30 59.5t64 25.5q25 0 72 -17q44 -18 61 -18q13 0 37 18q23 17 42 17q50 0 50 -45q0 -34 -35.5 -63.5t-70.5 -29.5q-26 0 -70 18t-53 18q-17 0 -41 -18t-38 -18q-19 0 -33.5 13t-14.5 40z" />
    <glyph glyph-name="Odieresis" unicode="&#xd6;" horiz-adv-x="816" 
d="M44 369q0 163 96 265.5t268 102.5t268 -102.5t96 -265.5q0 -78 -23 -146.5t-66.5 -122.5t-114.5 -85.5t-160 -31.5q-184 0 -274 106t-90 280zM208 369q0 -254 200 -254q105 0 152.5 70t47.5 184q0 107 -51.5 171.5t-148.5 64.5t-148.5 -64.5t-51.5 -171.5zM233 844
q0 30 21.5 51.5t51.5 21.5t51.5 -21.5t21.5 -51.5t-21.5 -51.5t-51.5 -21.5t-51.5 21.5t-21.5 51.5zM437 844q0 30 21.5 51.5t51.5 21.5t51.5 -21.5t21.5 -51.5t-21.5 -51.5t-51.5 -21.5t-51.5 21.5t-21.5 51.5z" />
    <glyph glyph-name="multiply" unicode="&#xd7;" horiz-adv-x="600" 
d="M385 283l137 -138q19 -19 19 -40q0 -28 -18.5 -45.5t-46.5 -17.5q-19 0 -38 19l-138 137l-138 -137q-19 -19 -38 -19q-28 0 -46.5 17.5t-18.5 45.5q0 21 19 40l137 138l-137 138q-19 19 -19 40q0 28 18.5 45.5t46.5 17.5q19 0 38 -19l138 -137l138 137q19 19 38 19
q28 0 46.5 -17.5t18.5 -45.5q0 -21 -19 -40z" />
    <glyph glyph-name="Oslash" unicode="&#xd8;" horiz-adv-x="816" 
d="M229 233l301 333q-47 39 -122 39q-97 0 -148.5 -64.5t-51.5 -171.5q0 -80 21 -136zM585 490l-302 -336q49 -39 125 -39q105 0 152.5 70t47.5 184q0 69 -23 121zM78 66l40 44q-74 97 -74 259q0 163 96 265.5t268 102.5q130 0 220 -62l43 48q27 32 52 32q45 0 45 -43
q0 -18 -28 -50l-45 -50q77 -95 77 -243q0 -78 -23 -146.5t-66.5 -122.5t-114.5 -85.5t-160 -31.5q-138 0 -223 62l-52 -58q-20 -22 -43 -22q-20 0 -31.5 15t-11.5 30q0 21 31 56z" />
    <glyph glyph-name="Ugrave" unicode="&#xd9;" horiz-adv-x="778" 
d="M76 270v381q0 37 22.5 59.5t59.5 22.5t59.5 -22.5t22.5 -59.5v-394q0 -142 149 -142t149 142v394q0 37 22.5 59.5t59.5 22.5t59.5 -22.5t22.5 -59.5v-381q0 -144 -82.5 -215.5t-230.5 -71.5t-230.5 71.5t-82.5 215.5zM371 909l74 -57q29 -24 29 -48t-15.5 -36.5
t-35.5 -12.5t-46 18l-90 61q-37 25 -37 54q0 19 13.5 37t40.5 18q24 0 67 -34z" />
    <glyph glyph-name="Uacute" unicode="&#xda;" horiz-adv-x="778" 
d="M76 270v381q0 37 22.5 59.5t59.5 22.5t59.5 -22.5t22.5 -59.5v-394q0 -142 149 -142t149 142v394q0 37 22.5 59.5t59.5 22.5t59.5 -22.5t22.5 -59.5v-381q0 -144 -82.5 -215.5t-230.5 -71.5t-230.5 71.5t-82.5 215.5zM333 852l74 57q43 34 67 34q27 0 40.5 -18t13.5 -37
q0 -29 -37 -54l-90 -61q-26 -18 -46 -18t-35.5 12.5t-15.5 36.5t29 48z" />
    <glyph glyph-name="Ucircumflex" unicode="&#xdb;" horiz-adv-x="778" 
d="M76 270v381q0 37 22.5 59.5t59.5 22.5t59.5 -22.5t22.5 -59.5v-394q0 -142 149 -142t149 142v394q0 37 22.5 59.5t59.5 22.5t59.5 -22.5t22.5 -59.5v-381q0 -144 -82.5 -215.5t-230.5 -71.5t-230.5 71.5t-82.5 215.5zM389 848l-64 -64q-28 -29 -53 -29q-16 0 -30.5 15
t-14.5 37q0 19 74 88q27 25 44.5 32.5t43.5 7.5t43.5 -7.5t44.5 -32.5q74 -69 74 -88q0 -22 -14.5 -37t-30.5 -15q-25 0 -53 29z" />
    <glyph glyph-name="Udieresis" unicode="&#xdc;" horiz-adv-x="778" 
d="M76 270v381q0 37 22.5 59.5t59.5 22.5t59.5 -22.5t22.5 -59.5v-394q0 -142 149 -142t149 142v394q0 37 22.5 59.5t59.5 22.5t59.5 -22.5t22.5 -59.5v-381q0 -144 -82.5 -215.5t-230.5 -71.5t-230.5 71.5t-82.5 215.5zM214 844q0 30 21.5 51.5t51.5 21.5t51.5 -21.5
t21.5 -51.5t-21.5 -51.5t-51.5 -21.5t-51.5 21.5t-21.5 51.5zM418 844q0 30 21.5 51.5t51.5 21.5t51.5 -21.5t21.5 -51.5t-21.5 -51.5t-51.5 -21.5t-51.5 21.5t-21.5 51.5z" />
    <glyph glyph-name="Yacute" unicode="&#xdd;" horiz-adv-x="612" 
d="M224 69v212l-201 334q-14 23 -14 43q0 38 26.5 56.5t56.5 18.5q28 0 44.5 -11.5t29.5 -36.5l143 -263l142 263q14 27 29.5 37.5t41.5 10.5q29 0 55 -18.5t26 -56.5q0 -20 -14 -43l-201 -334v-212q0 -37 -22.5 -59.5t-59.5 -22.5t-59.5 22.5t-22.5 59.5zM250 852l74 57
q43 34 67 34q27 0 40.5 -18t13.5 -37q0 -29 -37 -54l-90 -61q-26 -18 -46 -18t-35.5 12.5t-15.5 36.5t29 48z" />
    <glyph glyph-name="Thorn" unicode="&#xde;" horiz-adv-x="704" 
d="M76 69v582q0 37 22.5 59.5t59.5 22.5t59.5 -22.5t22.5 -59.5v-49h183q111 0 180 -57t69 -171q0 -101 -66.5 -164.5t-183.5 -63.5h-182v-77q0 -37 -22.5 -59.5t-59.5 -22.5t-59.5 22.5t-22.5 59.5zM240 476v-204h153q50 0 82.5 28t32.5 74q0 102 -132 102h-136z" />
    <glyph glyph-name="germandbls" unicode="&#xdf;" 
d="M58 60v448q0 110 63 169t183 59q91 0 160 -49.5t69 -139.5q0 -89 -88 -141q62 -17 94 -66.5t32 -116.5q0 -103 -63 -169.5t-163 -66.5q-34 0 -57 15t-23 44q0 19 5 30.5t19 17.5t22.5 8t30.5 5q77 12 77 115q0 59 -23 85t-80 36q-51 9 -51 50q0 44 45 53q23 5 33 8
t22.5 12t17 25t4.5 41q0 45 -23.5 70.5t-67.5 25.5q-50 0 -71 -33t-21 -81v-454q0 -35 -19.5 -54t-53.5 -19t-53.5 19t-19.5 54z" />
    <glyph glyph-name="agrave" unicode="&#xe0;" 
d="M543 386v-245q0 -35 7.5 -63t7.5 -35q0 -24 -19.5 -40t-46.5 -16q-82 0 -86 85q-77 -85 -200 -85q-66 0 -115.5 41.5t-49.5 107.5q0 44 15.5 75t45 49.5t63.5 28.5t80 15l89 10q31 4 47 14.5t16 39.5q0 30 -26 45t-66 15q-37 0 -64 -12.5t-39.5 -27.5t-29.5 -27.5
t-36 -12.5q-27 0 -44.5 16.5t-17.5 39.5q0 49 63.5 90.5t168.5 41.5q110 0 173.5 -37t63.5 -113zM397 189v57q-16 -15 -63 -23l-53 -8q-48 -7 -71 -23.5t-23 -48.5q0 -25 22 -42.5t59 -17.5q58 0 93.5 31.5t35.5 74.5zM288 727l74 -57q29 -24 29 -48t-15.5 -36.5
t-35.5 -12.5t-46 18l-90 61q-37 25 -37 54q0 19 13.5 37t40.5 18q25 0 67 -34z" />
    <glyph glyph-name="aacute" unicode="&#xe1;" 
d="M543 386v-245q0 -35 7.5 -63t7.5 -35q0 -24 -19.5 -40t-46.5 -16q-82 0 -86 85q-77 -85 -200 -85q-66 0 -115.5 41.5t-49.5 107.5q0 44 15.5 75t45 49.5t63.5 28.5t80 15l89 10q31 4 47 14.5t16 39.5q0 30 -26 45t-66 15q-37 0 -64 -12.5t-39.5 -27.5t-29.5 -27.5
t-36 -12.5q-27 0 -44.5 16.5t-17.5 39.5q0 49 63.5 90.5t168.5 41.5q110 0 173.5 -37t63.5 -113zM397 189v57q-16 -15 -63 -23l-53 -8q-48 -7 -71 -23.5t-23 -48.5q0 -25 22 -42.5t59 -17.5q58 0 93.5 31.5t35.5 74.5zM250 670l74 57q42 34 67 34q27 0 40.5 -18t13.5 -37
q0 -29 -37 -54l-90 -61q-26 -18 -46 -18t-35.5 12.5t-15.5 36.5t29 48z" />
    <glyph glyph-name="acircumflex" unicode="&#xe2;" 
d="M543 386v-245q0 -35 7.5 -63t7.5 -35q0 -24 -19.5 -40t-46.5 -16q-82 0 -86 85q-77 -85 -200 -85q-66 0 -115.5 41.5t-49.5 107.5q0 44 15.5 75t45 49.5t63.5 28.5t80 15l89 10q31 4 47 14.5t16 39.5q0 30 -26 45t-66 15q-37 0 -64 -12.5t-39.5 -27.5t-29.5 -27.5
t-36 -12.5q-27 0 -44.5 16.5t-17.5 39.5q0 49 63.5 90.5t168.5 41.5q110 0 173.5 -37t63.5 -113zM397 189v57q-16 -15 -63 -23l-53 -8q-48 -7 -71 -23.5t-23 -48.5q0 -25 22 -42.5t59 -17.5q58 0 93.5 31.5t35.5 74.5zM306 666l-64 -64q-28 -29 -53 -29q-16 0 -30.5 15
t-14.5 37q0 19 74 88q27 25 44.5 32.5t43.5 7.5t43.5 -7.5t44.5 -32.5q74 -69 74 -88q0 -22 -14.5 -37t-30.5 -15q-25 0 -53 29z" />
    <glyph glyph-name="atilde" unicode="&#xe3;" 
d="M543 386v-245q0 -35 7.5 -63t7.5 -35q0 -24 -19.5 -40t-46.5 -16q-82 0 -86 85q-77 -85 -200 -85q-66 0 -115.5 41.5t-49.5 107.5q0 44 15.5 75t45 49.5t63.5 28.5t80 15l89 10q31 4 47 14.5t16 39.5q0 30 -26 45t-66 15q-37 0 -64 -12.5t-39.5 -27.5t-29.5 -27.5
t-36 -12.5q-27 0 -44.5 16.5t-17.5 39.5q0 49 63.5 90.5t168.5 41.5q110 0 173.5 -37t63.5 -113zM397 189v57q-16 -15 -63 -23l-53 -8q-48 -7 -71 -23.5t-23 -48.5q0 -25 22 -42.5t59 -17.5q58 0 93.5 31.5t35.5 74.5zM128 649q0 34 30 59.5t64 25.5q25 0 72 -17
q44 -18 61 -18q13 0 37 18q23 17 42 17q50 0 50 -45q0 -34 -35.5 -63.5t-70.5 -29.5q-26 0 -70 18t-53 18q-17 0 -41 -18t-38 -18q-19 0 -33.5 13t-14.5 40z" />
    <glyph glyph-name="adieresis" unicode="&#xe4;" 
d="M543 386v-245q0 -35 7.5 -63t7.5 -35q0 -24 -19.5 -40t-46.5 -16q-82 0 -86 85q-77 -85 -200 -85q-66 0 -115.5 41.5t-49.5 107.5q0 44 15.5 75t45 49.5t63.5 28.5t80 15l89 10q31 4 47 14.5t16 39.5q0 30 -26 45t-66 15q-37 0 -64 -12.5t-39.5 -27.5t-29.5 -27.5
t-36 -12.5q-27 0 -44.5 16.5t-17.5 39.5q0 49 63.5 90.5t168.5 41.5q110 0 173.5 -37t63.5 -113zM397 189v57q-16 -15 -63 -23l-53 -8q-48 -7 -71 -23.5t-23 -48.5q0 -25 22 -42.5t59 -17.5q58 0 93.5 31.5t35.5 74.5zM131 662q0 30 21.5 51.5t51.5 21.5t51.5 -21.5
t21.5 -51.5t-21.5 -51.5t-51.5 -21.5t-51.5 21.5t-21.5 51.5zM335 662q0 30 21.5 51.5t51.5 21.5t51.5 -21.5t21.5 -51.5t-21.5 -51.5t-51.5 -21.5t-51.5 21.5t-21.5 51.5z" />
    <glyph glyph-name="aring" unicode="&#xe5;" 
d="M543 386v-245q0 -35 7.5 -63t7.5 -35q0 -24 -19.5 -40t-46.5 -16q-82 0 -86 85q-77 -85 -200 -85q-66 0 -115.5 41.5t-49.5 107.5q0 44 15.5 75t45 49.5t63.5 28.5t80 15l89 10q31 4 47 14.5t16 39.5q0 30 -26 45t-66 15q-37 0 -64 -12.5t-39.5 -27.5t-29.5 -27.5
t-36 -12.5q-27 0 -44.5 16.5t-17.5 39.5q0 49 63.5 90.5t168.5 41.5q110 0 173.5 -37t63.5 -113zM397 189v57q-16 -15 -63 -23l-53 -8q-48 -7 -71 -23.5t-23 -48.5q0 -25 22 -42.5t59 -17.5q58 0 93.5 31.5t35.5 74.5zM198 673q0 45 31.5 76.5t76.5 31.5t76.5 -31.5
t31.5 -76.5t-31.5 -76.5t-76.5 -31.5t-76.5 31.5t-31.5 76.5zM254 673q0 -22 15 -37t37 -15t37 15t15 37t-15 37t-37 15t-37 -15t-15 -37z" />
    <glyph glyph-name="ae" unicode="&#xe6;" horiz-adv-x="944" 
d="M844 234h-321q0 -59 37.5 -96t88.5 -37q37 0 64 11.5t39.5 24.5t29.5 24.5t36 11.5q25 0 42.5 -18t17.5 -39q0 -41 -40 -72t-90.5 -44t-98.5 -13q-67 0 -112.5 21t-87.5 75q-83 -96 -217 -96q-83 0 -137 40.5t-54 108.5q0 44 15.5 75t45 49.5t63.5 28.5t80 15l89 10
q31 4 47 14.5t16 39.5q0 30 -26 45t-66 15q-37 0 -64 -12.5t-39.5 -27.5t-29.5 -27.5t-36 -12.5q-27 0 -44.5 16.5t-17.5 39.5q0 49 63.5 90.5t168.5 41.5q113 0 180 -64q69 64 170 64q112 0 182 -72t70 -167q0 -37 -13.5 -50t-50.5 -13zM397 189v57q-16 -15 -63 -23l-53 -8
q-48 -7 -71 -23.5t-23 -48.5q0 -25 22 -42.5t59 -17.5q58 0 93.5 31.5t35.5 74.5zM523 318h247q-6 50 -39 83t-75 33q-107 0 -133 -116z" />
    <glyph glyph-name="ccedilla" unicode="&#xe7;" horiz-adv-x="537" 
d="M241 -59l31 48q-119 6 -180.5 77t-61.5 185q0 129 71.5 207t202.5 78q89 0 151 -42t62 -95q0 -30 -19.5 -46.5t-48.5 -16.5q-23 0 -38 13.5t-23 29.5t-30.5 29.5t-57.5 13.5q-51 0 -87.5 -40.5t-36.5 -130.5q0 -69 32 -109.5t91 -40.5q34 0 56.5 14.5t31.5 32.5
t26.5 32.5t42.5 14.5q27 0 44 -16.5t17 -39.5q0 -50 -50 -95.5t-138 -53.5l-30 -45h7q94 0 94 -70q0 -40 -35.5 -64.5t-85.5 -24.5q-41 0 -62 12.5t-21 28.5q0 10 7 18t17 8q4 0 24 -5.5t31 -5.5q16 0 25.5 9t9.5 23q0 26 -25 26q-8 0 -18.5 -1.5t-13.5 -1.5q-23 0 -23 20
q0 6 11 24z" />
    <glyph glyph-name="egrave" unicode="&#xe8;" horiz-adv-x="612" 
d="M512 234h-330q0 -59 36 -96t99 -37q37 0 64 11.5t39.5 24.5t29.5 24.5t36 11.5q25 0 42.5 -18t17.5 -39q0 -41 -40 -72t-90.5 -44t-98.5 -13q-73 0 -129.5 23t-88 62t-47.5 84.5t-16 95.5q0 129 74 206.5t202 77.5q120 0 192 -71.5t72 -167.5q0 -37 -13.5 -50t-50.5 -13z
M182 318h256q-6 51 -40.5 83.5t-82.5 32.5q-107 0 -133 -116zM288 727l74 -57q29 -24 29 -48t-15.5 -36.5t-35.5 -12.5t-46 18l-90 61q-37 25 -37 54q0 19 13.5 37t40.5 18q25 0 67 -34z" />
    <glyph glyph-name="eacute" unicode="&#xe9;" horiz-adv-x="612" 
d="M512 234h-330q0 -59 36 -96t99 -37q37 0 64 11.5t39.5 24.5t29.5 24.5t36 11.5q25 0 42.5 -18t17.5 -39q0 -41 -40 -72t-90.5 -44t-98.5 -13q-73 0 -129.5 23t-88 62t-47.5 84.5t-16 95.5q0 129 74 206.5t202 77.5q120 0 192 -71.5t72 -167.5q0 -37 -13.5 -50t-50.5 -13z
M182 318h256q-6 51 -40.5 83.5t-82.5 32.5q-107 0 -133 -116zM250 670l74 57q42 34 67 34q27 0 40.5 -18t13.5 -37q0 -29 -37 -54l-90 -61q-26 -18 -46 -18t-35.5 12.5t-15.5 36.5t29 48z" />
    <glyph glyph-name="ecircumflex" unicode="&#xea;" horiz-adv-x="612" 
d="M512 234h-330q0 -59 36 -96t99 -37q37 0 64 11.5t39.5 24.5t29.5 24.5t36 11.5q25 0 42.5 -18t17.5 -39q0 -41 -40 -72t-90.5 -44t-98.5 -13q-73 0 -129.5 23t-88 62t-47.5 84.5t-16 95.5q0 129 74 206.5t202 77.5q120 0 192 -71.5t72 -167.5q0 -37 -13.5 -50t-50.5 -13z
M182 318h256q-6 51 -40.5 83.5t-82.5 32.5q-107 0 -133 -116zM306 666l-64 -64q-28 -29 -53 -29q-16 0 -30.5 15t-14.5 37q0 19 74 88q27 25 44.5 32.5t43.5 7.5t43.5 -7.5t44.5 -32.5q74 -69 74 -88q0 -22 -14.5 -37t-30.5 -15q-25 0 -53 29z" />
    <glyph glyph-name="edieresis" unicode="&#xeb;" horiz-adv-x="612" 
d="M512 234h-330q0 -59 36 -96t99 -37q37 0 64 11.5t39.5 24.5t29.5 24.5t36 11.5q25 0 42.5 -18t17.5 -39q0 -41 -40 -72t-90.5 -44t-98.5 -13q-73 0 -129.5 23t-88 62t-47.5 84.5t-16 95.5q0 129 74 206.5t202 77.5q120 0 192 -71.5t72 -167.5q0 -37 -13.5 -50t-50.5 -13z
M182 318h256q-6 51 -40.5 83.5t-82.5 32.5q-107 0 -133 -116zM131 662q0 30 21.5 51.5t51.5 21.5t51.5 -21.5t21.5 -51.5t-21.5 -51.5t-51.5 -21.5t-51.5 21.5t-21.5 51.5zM335 662q0 30 21.5 51.5t51.5 21.5t51.5 -21.5t21.5 -51.5t-21.5 -51.5t-51.5 -21.5t-51.5 21.5
t-21.5 51.5z" />
    <glyph glyph-name="igrave" unicode="&#xec;" horiz-adv-x="278" 
d="M66 60v403q0 73 73 73t73 -73v-403q0 -73 -73 -73t-73 73zM121 727l74 -57q29 -24 29 -48t-15.5 -36.5t-35.5 -12.5t-46 18l-90 61q-37 25 -37 54q0 19 13.5 37t40.5 18q25 0 67 -34z" />
    <glyph glyph-name="iacute" unicode="&#xed;" horiz-adv-x="278" 
d="M66 60v403q0 73 73 73t73 -73v-403q0 -73 -73 -73t-73 73zM83 670l74 57q43 34 67 34q27 0 40.5 -18t13.5 -37q0 -29 -37 -54l-90 -61q-26 -18 -46 -18t-35.5 12.5t-15.5 36.5t29 48z" />
    <glyph glyph-name="icircumflex" unicode="&#xee;" horiz-adv-x="278" 
d="M66 60v403q0 73 73 73t73 -73v-403q0 -73 -73 -73t-73 73zM139 666l-64 -64q-28 -29 -53 -29q-16 0 -30.5 15t-14.5 37q0 19 74 88q27 25 44.5 32.5t43.5 7.5t43.5 -7.5t44.5 -32.5q74 -69 74 -88q0 -22 -14.5 -37t-30.5 -15q-25 0 -53 29z" />
    <glyph glyph-name="idieresis" unicode="&#xef;" horiz-adv-x="278" 
d="M66 60v403q0 73 73 73t73 -73v-403q0 -73 -73 -73t-73 73zM-36 662q0 30 21.5 51.5t51.5 21.5t51.5 -21.5t21.5 -51.5t-21.5 -51.5t-51.5 -21.5t-51.5 21.5t-21.5 51.5zM168 662q0 30 21.5 51.5t51.5 21.5t51.5 -21.5t21.5 -51.5t-21.5 -51.5t-51.5 -21.5t-51.5 21.5
t-21.5 51.5z" />
    <glyph glyph-name="eth" unicode="&#xf0;" horiz-adv-x="612" 
d="M182 262q0 -72 31 -119.5t93 -47.5t93 47.5t31 119.5q0 75 -31.5 120.5t-92.5 45.5t-92.5 -45.5t-31.5 -120.5zM324 613l-103 -46q-14 -6 -26 -6q-13 0 -22 8.5t-9 22.5q0 22 29 35l72 32q-18 10 -42.5 16t-35 11.5t-10.5 19.5q0 31 47 31q79 0 142 -33l83 37q14 6 26 6
q13 0 22 -8.5t9 -22.5q0 -22 -29 -35l-45 -20q72 -62 108 -163t36 -212q0 -137 -65 -218t-205 -81q-72 0 -125.5 22t-84.5 61t-45.5 87t-14.5 105q0 119 71.5 196.5t193.5 77.5q67 0 96 -31l2 2q-25 64 -75 106z" />
    <glyph glyph-name="ntilde" unicode="&#xf1;" 
d="M58 60v403q0 73 66 73t66 -73v-19h2q70 92 177 92q35 0 66 -9.5t58.5 -30.5t43.5 -60t16 -92v-284q0 -73 -73 -73t-73 73v255q0 46 -23 73.5t-69 27.5q-42 0 -76.5 -32t-34.5 -83v-241q0 -73 -73 -73t-73 73zM128 649q0 34 30 59.5t64 25.5q25 0 72 -17q44 -18 61 -18
q13 0 37 18q23 17 42 17q50 0 50 -45q0 -34 -35.5 -63.5t-70.5 -29.5q-26 0 -70 18t-53 18q-17 0 -41 -18t-38 -18q-19 0 -33.5 13t-14.5 40z" />
    <glyph glyph-name="ograve" unicode="&#xf2;" horiz-adv-x="612" 
d="M182 262q0 -72 31 -119.5t93 -47.5t93 47.5t31 119.5q0 75 -31.5 120.5t-92.5 45.5t-92.5 -45.5t-31.5 -120.5zM36 262q0 120 71 197t199 77t199 -77t71 -197q0 -57 -14.5 -105t-45.5 -87t-84.5 -61t-125.5 -22t-125.5 22t-84.5 61t-45.5 87t-14.5 105zM288 727l74 -57
q29 -24 29 -48t-15.5 -36.5t-35.5 -12.5t-46 18l-90 61q-37 25 -37 54q0 19 13.5 37t40.5 18q25 0 67 -34z" />
    <glyph glyph-name="oacute" unicode="&#xf3;" horiz-adv-x="612" 
d="M182 262q0 -72 31 -119.5t93 -47.5t93 47.5t31 119.5q0 75 -31.5 120.5t-92.5 45.5t-92.5 -45.5t-31.5 -120.5zM36 262q0 120 71 197t199 77t199 -77t71 -197q0 -57 -14.5 -105t-45.5 -87t-84.5 -61t-125.5 -22t-125.5 22t-84.5 61t-45.5 87t-14.5 105zM250 670l74 57
q42 34 67 34q27 0 40.5 -18t13.5 -37q0 -29 -37 -54l-90 -61q-26 -18 -46 -18t-35.5 12.5t-15.5 36.5t29 48z" />
    <glyph glyph-name="ocircumflex" unicode="&#xf4;" horiz-adv-x="612" 
d="M182 262q0 -72 31 -119.5t93 -47.5t93 47.5t31 119.5q0 75 -31.5 120.5t-92.5 45.5t-92.5 -45.5t-31.5 -120.5zM36 262q0 120 71 197t199 77t199 -77t71 -197q0 -57 -14.5 -105t-45.5 -87t-84.5 -61t-125.5 -22t-125.5 22t-84.5 61t-45.5 87t-14.5 105zM306 666l-64 -64
q-28 -29 -53 -29q-16 0 -30.5 15t-14.5 37q0 19 74 88q27 25 44.5 32.5t43.5 7.5t43.5 -7.5t44.5 -32.5q74 -69 74 -88q0 -22 -14.5 -37t-30.5 -15q-25 0 -53 29z" />
    <glyph glyph-name="otilde" unicode="&#xf5;" horiz-adv-x="612" 
d="M182 262q0 -72 31 -119.5t93 -47.5t93 47.5t31 119.5q0 75 -31.5 120.5t-92.5 45.5t-92.5 -45.5t-31.5 -120.5zM36 262q0 120 71 197t199 77t199 -77t71 -197q0 -57 -14.5 -105t-45.5 -87t-84.5 -61t-125.5 -22t-125.5 22t-84.5 61t-45.5 87t-14.5 105zM128 649
q0 34 30 59.5t64 25.5q25 0 72 -17q44 -18 61 -18q13 0 37 18q23 17 42 17q50 0 50 -45q0 -34 -35.5 -63.5t-70.5 -29.5q-26 0 -70 18t-53 18q-17 0 -41 -18t-38 -18q-19 0 -33.5 13t-14.5 40z" />
    <glyph glyph-name="odieresis" unicode="&#xf6;" horiz-adv-x="612" 
d="M182 262q0 -72 31 -119.5t93 -47.5t93 47.5t31 119.5q0 75 -31.5 120.5t-92.5 45.5t-92.5 -45.5t-31.5 -120.5zM36 262q0 120 71 197t199 77t199 -77t71 -197q0 -57 -14.5 -105t-45.5 -87t-84.5 -61t-125.5 -22t-125.5 22t-84.5 61t-45.5 87t-14.5 105zM131 662
q0 30 21.5 51.5t51.5 21.5t51.5 -21.5t21.5 -51.5t-21.5 -51.5t-51.5 -21.5t-51.5 21.5t-21.5 51.5zM335 662q0 30 21.5 51.5t51.5 21.5t51.5 -21.5t21.5 -51.5t-21.5 -51.5t-51.5 -21.5t-51.5 21.5t-21.5 51.5z" />
    <glyph glyph-name="divide" unicode="&#xf7;" horiz-adv-x="600" 
d="M87 343h426q31 0 50.5 -16.5t19.5 -43.5t-19.5 -43.5t-50.5 -16.5h-426q-30 0 -50 18t-20 42q0 27 19.5 43.5t50.5 16.5zM212 76q0 37 25.5 62.5t62.5 25.5t62.5 -25.5t25.5 -62.5t-25.5 -62.5t-62.5 -25.5t-62.5 25.5t-25.5 62.5zM212 490q0 37 25.5 62.5t62.5 25.5
t62.5 -25.5t25.5 -62.5t-25.5 -62.5t-62.5 -25.5t-62.5 25.5t-25.5 62.5z" />
    <glyph glyph-name="oslash" unicode="&#xf8;" horiz-adv-x="612" 
d="M190 196l195 202q-32 30 -79 30q-61 0 -92.5 -45.5t-31.5 -120.5q0 -38 8 -66zM43 43l41 43q-48 68 -48 176q0 120 71 197t199 77q98 0 165 -48l42 43q23 23 42 23q14 0 24.5 -10.5t10.5 -25.5q0 -17 -21 -38l-44 -46q51 -70 51 -172q0 -57 -14.5 -105t-45.5 -87
t-84.5 -61t-125.5 -22q-103 0 -168 46l-39 -41q-23 -23 -42 -23q-14 0 -24.5 10.5t-10.5 25.5q0 17 21 38zM423 328l-195 -202q31 -31 78 -31q62 0 93 47.5t31 119.5q0 38 -7 66z" />
    <glyph glyph-name="ugrave" unicode="&#xf9;" 
d="M553 463v-403q0 -73 -66 -73t-66 73v19h-2q-70 -92 -177 -92q-35 0 -66 9.5t-58.5 30.5t-43.5 60t-16 92v284q0 73 73 73t73 -73v-255q0 -46 23 -73.5t69 -27.5q42 0 76.5 32t34.5 83v241q0 73 73 73t73 -73zM288 727l74 -57q29 -24 29 -48t-15.5 -36.5t-35.5 -12.5
t-46 18l-90 61q-37 25 -37 54q0 19 13.5 37t40.5 18q25 0 67 -34z" />
    <glyph glyph-name="uacute" unicode="&#xfa;" 
d="M553 463v-403q0 -73 -66 -73t-66 73v19h-2q-70 -92 -177 -92q-35 0 -66 9.5t-58.5 30.5t-43.5 60t-16 92v284q0 73 73 73t73 -73v-255q0 -46 23 -73.5t69 -27.5q42 0 76.5 32t34.5 83v241q0 73 73 73t73 -73zM250 670l74 57q42 34 67 34q27 0 40.5 -18t13.5 -37
q0 -29 -37 -54l-90 -61q-26 -18 -46 -18t-35.5 12.5t-15.5 36.5t29 48z" />
    <glyph glyph-name="ucircumflex" unicode="&#xfb;" 
d="M553 463v-403q0 -73 -66 -73t-66 73v19h-2q-70 -92 -177 -92q-35 0 -66 9.5t-58.5 30.5t-43.5 60t-16 92v284q0 73 73 73t73 -73v-255q0 -46 23 -73.5t69 -27.5q42 0 76.5 32t34.5 83v241q0 73 73 73t73 -73zM306 666l-64 -64q-28 -29 -53 -29q-16 0 -30.5 15t-14.5 37
q0 19 74 88q27 25 44.5 32.5t43.5 7.5t43.5 -7.5t44.5 -32.5q74 -69 74 -88q0 -22 -14.5 -37t-30.5 -15q-25 0 -53 29z" />
    <glyph glyph-name="udieresis" unicode="&#xfc;" 
d="M553 463v-403q0 -73 -66 -73t-66 73v19h-2q-70 -92 -177 -92q-35 0 -66 9.5t-58.5 30.5t-43.5 60t-16 92v284q0 73 73 73t73 -73v-255q0 -46 23 -73.5t69 -27.5q42 0 76.5 32t34.5 83v241q0 73 73 73t73 -73zM131 662q0 30 21.5 51.5t51.5 21.5t51.5 -21.5t21.5 -51.5
t-21.5 -51.5t-51.5 -21.5t-51.5 21.5t-21.5 51.5zM335 662q0 30 21.5 51.5t51.5 21.5t51.5 -21.5t21.5 -51.5t-21.5 -51.5t-51.5 -21.5t-51.5 21.5t-21.5 51.5z" />
    <glyph glyph-name="yacute" unicode="&#xfd;" horiz-adv-x="500" 
d="M158 481l94 -341h2l89 331q18 65 70 65q38 0 56.5 -23t18.5 -43q0 -16 -11 -46l-169 -479q-28 -80 -64.5 -116t-102.5 -36q-46 0 -69 19t-23 48q0 28 18.5 43.5t48.5 15.5h15q13 0 20 1.5t16.5 12.5t14.5 32l-152 433q-18 52 -18 68q0 30 20.5 50t50.5 20q60 0 75 -55z
M194 670l74 57q42 34 67 34q27 0 40.5 -18t13.5 -37q0 -29 -37 -54l-90 -61q-26 -18 -46 -18t-35.5 12.5t-15.5 36.5t29 48z" />
    <glyph glyph-name="thorn" unicode="&#xfe;" 
d="M58 -134v794q0 35 19.5 54t53.5 19t53.5 -19t19.5 -54v-190h2q16 28 52 47t88 19q98 0 163.5 -71.5t65.5 -206.5q0 -114 -58 -192.5t-167 -78.5q-101 0 -144 74h-2v-195q0 -35 -19.5 -54t-53.5 -19t-53.5 19t-19.5 54zM429 263q0 68 -30 113t-86 46q-60 0 -88.5 -45
t-28.5 -114q0 -66 28 -114.5t89 -47.5q33 0 57 15.5t36 40.5t17.5 51.5t5.5 54.5z" />
    <glyph glyph-name="ydieresis" unicode="&#xff;" horiz-adv-x="500" 
d="M158 481l94 -341h2l89 331q18 65 70 65q38 0 56.5 -23t18.5 -43q0 -16 -11 -46l-169 -479q-28 -80 -64.5 -116t-102.5 -36q-46 0 -69 19t-23 48q0 28 18.5 43.5t48.5 15.5h15q13 0 20 1.5t16.5 12.5t14.5 32l-152 433q-18 52 -18 68q0 30 20.5 50t50.5 20q60 0 75 -55z
M75 662q0 30 21.5 51.5t51.5 21.5t51.5 -21.5t21.5 -51.5t-21.5 -51.5t-51.5 -21.5t-51.5 21.5t-21.5 51.5zM279 662q0 30 21.5 51.5t51.5 21.5t51.5 -21.5t21.5 -51.5t-21.5 -51.5t-51.5 -21.5t-51.5 21.5t-21.5 51.5z" />
    <glyph glyph-name="dotlessi" unicode="&#x131;" horiz-adv-x="278" 
d="M66 60v403q0 73 73 73t73 -73v-403q0 -73 -73 -73t-73 73z" />
    <glyph glyph-name="Lslash" unicode="&#x141;" 
d="M76 96v158l-12 -7q-16 -10 -31 -10q-19 0 -31 12.5t-12 32.5q0 27 38 50l48 29v290q0 37 22.5 59.5t59.5 22.5t59.5 -22.5t22.5 -59.5v-205l146 87q16 10 32 10q18 0 30.5 -13t12.5 -33q0 -27 -39 -49l-182 -108v-202h274q37 0 61 -18t24 -51t-24 -51t-61 -18h-342
q-47 0 -71.5 22t-24.5 74z" />
    <glyph glyph-name="lslash" unicode="&#x142;" horiz-adv-x="278" 
d="M66 60v180l-7 -8q-25 -26 -44 -25q-14 0 -23.5 10.5t-9.5 27.5q0 23 29 54l55 59v302q0 35 19.5 54t53.5 19t53.5 -19t19.5 -54v-144l7 7q25 26 44 25q14 0 23.5 -10.5t9.5 -27.5q0 -23 -29 -54l-55 -59v-337q0 -35 -19.5 -54t-53.5 -19t-53.5 19t-19.5 54z" />
    <glyph glyph-name="OE" unicode="&#x152;" horiz-adv-x="1000" 
d="M516 285v149q0 71 -39.5 122t-105.5 51q-78 0 -120.5 -69t-42.5 -197q0 -112 44.5 -170t115.5 -58q62 0 105 47t43 125zM674 588v-156h219q77 0 77 -63t-77 -63h-219v-174h231q83 0 83 -66t-83 -66h-297q-45 0 -61 16.5t-22 52.5q-59 -82 -194 -82q-94 0 -161 52
t-96.5 130.5t-29.5 173.5q0 59 9 113t31.5 105.5t56.5 88.5t87 60t120 23q117 0 177 -83q5 39 24 54.5t54 15.5h294q83 0 83 -66t-83 -66h-223z" />
    <glyph glyph-name="oe" unicode="&#x153;" horiz-adv-x="963" 
d="M863 234h-312q0 -59 34.5 -96t82.5 -37q37 0 64 11.5t39.5 24.5t29.5 24.5t36 11.5q25 0 42.5 -18t17.5 -39q0 -41 -40 -72t-90.5 -44t-98.5 -13q-131 0 -184 85q-69 -85 -196 -85q-66 0 -115.5 22t-78.5 61t-43.5 87t-14.5 105q0 120 71 197t199 77q111 0 180 -83
q76 83 189 83q112 0 182 -72t70 -167q0 -37 -13.5 -50t-50.5 -13zM182 262q0 -72 31 -119.5t93 -47.5q59 0 89 47.5t30 119.5q0 75 -30 120.5t-89 45.5q-61 0 -92.5 -45.5t-31.5 -120.5zM551 318h238q-6 50 -39 83t-75 33q-54 0 -82.5 -29.5t-41.5 -86.5z" />
    <glyph glyph-name="Scaron" unicode="&#x160;" horiz-adv-x="685" 
d="M316 448l137 -31q188 -43 188 -207q0 -102 -76 -164.5t-220 -62.5q-143 0 -222 57t-79 125q0 30 19.5 49t49.5 19q24 0 41.5 -13.5t31.5 -32.5t31 -38t49.5 -32.5t78.5 -13.5q61 0 96.5 28.5t35.5 66.5q0 58 -70 75l-185 47q-54 14 -90 35.5t-54 49t-25 54t-7 58.5
q0 76 44 127.5t106 72t137 20.5q101 0 190 -49.5t89 -118.5q0 -30 -22 -47.5t-53 -17.5q-21 0 -36.5 11t-28.5 27t-29.5 31.5t-47.5 26.5t-73 11q-56 0 -87 -23.5t-31 -61.5q0 -23 19 -40t39 -23.5t54 -14.5zM343 842l64 64q28 29 53 29q16 0 30.5 -15t14.5 -37
q0 -19 -74 -88q-27 -25 -44.5 -32.5t-43.5 -7.5t-43.5 7.5t-44.5 32.5q-74 69 -74 88q0 22 14.5 37t30.5 15q25 0 53 -29z" />
    <glyph glyph-name="scaron" unicode="&#x161;" horiz-adv-x="537" 
d="M35 373q0 82 66 122.5t153 40.5t155 -31.5t68 -79.5q0 -27 -16.5 -45.5t-44.5 -18.5q-23 0 -41.5 16.5t-44.5 33.5t-65 17q-84 0 -84 -45q0 -23 18.5 -33t59.5 -19l61 -14q37 -8 64.5 -18.5t56.5 -28t45 -45.5t16 -64q0 -84 -67 -129t-158 -45q-99 0 -170.5 38.5
t-71.5 92.5q0 26 15 43.5t44 17.5q21 0 39.5 -14t32 -31t41.5 -31t64 -14q38 0 61.5 15t23.5 38q0 18 -12.5 29t-24.5 14.5t-47 12.5l-86 21q-73 18 -112 52t-39 102zM269 660l64 64q28 29 53 29q16 0 30.5 -15t14.5 -37q0 -19 -74 -88q-27 -25 -44.5 -32.5t-43.5 -7.5
t-43.5 7.5t-44.5 32.5q-74 69 -74 88q0 22 14.5 37t30.5 15q25 0 53 -29z" />
    <glyph glyph-name="Ydieresis" unicode="&#x178;" horiz-adv-x="612" 
d="M224 69v212l-201 334q-14 23 -14 43q0 38 26.5 56.5t56.5 18.5q28 0 44.5 -11.5t29.5 -36.5l143 -263l142 263q14 27 29.5 37.5t41.5 10.5q29 0 55 -18.5t26 -56.5q0 -20 -14 -43l-201 -334v-212q0 -37 -22.5 -59.5t-59.5 -22.5t-59.5 22.5t-22.5 59.5zM131 844
q0 30 21.5 51.5t51.5 21.5t51.5 -21.5t21.5 -51.5t-21.5 -51.5t-51.5 -21.5t-51.5 21.5t-21.5 51.5zM335 844q0 30 21.5 51.5t51.5 21.5t51.5 -21.5t21.5 -51.5t-21.5 -51.5t-51.5 -21.5t-51.5 21.5t-21.5 51.5z" />
    <glyph glyph-name="Zcaron" unicode="&#x17d;" horiz-adv-x="685" 
d="M57 144l371 438h-286q-37 0 -61 18t-24 51t24 51t61 18h432q76 0 76 -75q0 -33 -23 -59l-377 -448h320q37 0 61 -18t24 -51t-24 -51t-61 -18h-445q-47 0 -71 18.5t-24 62.5q0 31 27 63zM343 842l64 64q28 29 53 29q16 0 30.5 -15t14.5 -37q0 -19 -74 -88
q-27 -25 -44.5 -32.5t-43.5 -7.5t-43.5 7.5t-44.5 32.5q-74 69 -74 88q0 22 14.5 37t30.5 15q25 0 53 -29z" />
    <glyph glyph-name="zcaron" unicode="&#x17e;" horiz-adv-x="556" 
d="M49 110l275 299h-211q-24 0 -41.5 14t-17.5 43t17.5 43t41.5 14h347q29 0 44.5 -17.5t15.5 -46.5q0 -24 -23 -49l-270 -296h240q24 0 41.5 -14t17.5 -43t-17.5 -43t-41.5 -14h-372q-31 0 -48 17t-17 40q0 33 19 53zM278 660l64 64q28 29 53 29q16 0 30.5 -15t14.5 -37
q0 -19 -74 -88q-27 -25 -44.5 -32.5t-43.5 -7.5t-43.5 7.5t-44.5 32.5q-74 69 -74 88q0 22 14.5 37t30.5 15q25 0 53 -29z" />
    <glyph glyph-name="florin" unicode="&#x192;" horiz-adv-x="612" 
d="M164 -31l61 335h-56q-58 0 -58 48t58 48h72l35 181q12 64 49 97t114 33q109 0 109 -66q0 -54 -55 -54h-36q-35 0 -44 -48l-26 -143h56q58 0 58 -48t-58 -48h-72l-69 -367q-15 -79 -50.5 -111.5t-121.5 -32.5q-102 0 -102 66q0 54 63 54h30q22 0 29.5 10.5t13.5 45.5z" />
    <glyph glyph-name="circumflex" unicode="&#x2c6;" horiz-adv-x="278" 
d="M139 666l-64 -64q-28 -29 -53 -29q-16 0 -30.5 15t-14.5 37q0 19 74 88q27 25 44.5 32.5t43.5 7.5t43.5 -7.5t44.5 -32.5q74 -69 74 -88q0 -22 -14.5 -37t-30.5 -15q-25 0 -53 29z" />
    <glyph glyph-name="caron" unicode="&#x2c7;" horiz-adv-x="278" 
d="M139 660l64 64q28 29 53 29q16 0 30.5 -15t14.5 -37q0 -19 -74 -88q-27 -25 -44.5 -32.5t-43.5 -7.5t-43.5 7.5t-44.5 32.5q-74 69 -74 88q0 22 14.5 37t30.5 15q25 0 53 -29z" />
    <glyph glyph-name="uni02C9" unicode="&#x2c9;" horiz-adv-x="278" 
d="M6 707h266q23 0 36.5 -12t13.5 -33t-13.5 -33t-36.5 -12h-266q-23 0 -36.5 12t-13.5 33t13.5 33t36.5 12z" />
    <glyph glyph-name="breve" unicode="&#x2d8;" horiz-adv-x="278" 
d="M-13 705q0 18 14.5 29t34.5 11q17 0 24 -6t22 -32q21 -38 57 -38t57 38q15 26 22 32t24 6q20 0 34.5 -11t14.5 -29q0 -45 -42.5 -85.5t-109.5 -40.5t-109.5 40.5t-42.5 85.5z" />
    <glyph glyph-name="dotaccent" unicode="&#x2d9;" horiz-adv-x="278" 
d="M66 662q0 30 21.5 51.5t51.5 21.5t51.5 -21.5t21.5 -51.5t-21.5 -51.5t-51.5 -21.5t-51.5 21.5t-21.5 51.5z" />
    <glyph glyph-name="ring" unicode="&#x2da;" horiz-adv-x="278" 
d="M31 673q0 45 31.5 76.5t76.5 31.5t76.5 -31.5t31.5 -76.5t-31.5 -76.5t-76.5 -31.5t-76.5 31.5t-31.5 76.5zM87 673q0 -22 15 -37t37 -15t37 15t15 37t-15 37t-37 15t-37 -15t-15 -37z" />
    <glyph glyph-name="ogonek" unicode="&#x2db;" horiz-adv-x="278" 
d="M135 0h56q-70 -47 -70 -110q0 -48 41 -48q12 0 28.5 5.5t20.5 5.5q10 0 17 -8t7 -18q0 -17 -22.5 -29t-70.5 -12q-111 0 -111 89q0 38 29.5 72.5t74.5 52.5z" />
    <glyph glyph-name="tilde" unicode="&#x2dc;" horiz-adv-x="278" 
d="M-39 649q0 34 30 59.5t64 25.5q25 0 72 -17q44 -18 61 -18q13 0 37 18q23 17 42 17q50 0 50 -45q0 -34 -35.5 -63.5t-70.5 -29.5q-27 0 -70.5 18t-52.5 18q-17 0 -41 -18t-38 -18q-19 0 -33.5 13t-14.5 40z" />
    <glyph glyph-name="hungarumlaut" unicode="&#x2dd;" horiz-adv-x="278" 
d="M-47 670l74 57q43 34 67 34q27 0 40.5 -18t13.5 -37q0 -29 -37 -54l-90 -61q-26 -18 -46 -18t-35.5 12.5t-15.5 36.5t29 48zM213 670l74 57q43 34 67 34q27 0 40.5 -18t13.5 -37q0 -29 -37 -54l-90 -61q-26 -18 -46 -18t-35.5 12.5t-15.5 36.5t29 48z" />
    <glyph glyph-name="uni03A9" unicode="&#x3a9;" horiz-adv-x="783" 
d="M196 100v3q-59 47 -98.5 119t-39.5 163q0 136 94.5 230t241.5 94q100 0 177 -48t114.5 -119.5t37.5 -152.5q0 -93 -39.5 -166.5t-99.5 -119.5v-3h154v-100h-289v75q63 37 103.5 108.5t40.5 180.5q0 100 -53.5 171.5t-145.5 71.5q-91 0 -148 -70t-57 -177
q0 -101 41.5 -176.5t102.5 -108.5v-75h-289v100h152z" />
    <glyph glyph-name="uni03BC" unicode="&#x3bc;" 
d="M553 463v-403q0 -73 -66 -73t-66 73v19h-2q-31 -41 -73.5 -66.5t-83.5 -25.5q-43 0 -58 13v-134q0 -35 -19.5 -54t-53.5 -19t-53.5 19t-19.5 54v597q0 73 73 73t73 -73v-255q0 -46 23 -73.5t69 -27.5q42 0 76.5 32t34.5 83v241q0 73 73 73t73 -73z" />
    <glyph glyph-name="pi" unicode="&#x3c0;" horiz-adv-x="648" 
d="M622 419h-79v-264q0 -97 15 -155h-126q-18 30 -18 147v272h-157q-4 -97 -24 -225t-46 -194h-126q27 82 46.5 206.5t21.5 212.5q-71 0 -110 -11l-15 82q45 33 175 33h453z" />
    <glyph glyph-name="endash" unicode="&#x2013;" horiz-adv-x="500" 
d="M69 330h362q59 0 59 -54t-59 -54h-362q-59 0 -59 54t59 54z" />
    <glyph glyph-name="emdash" unicode="&#x2014;" horiz-adv-x="1000" 
d="M69 330h862q59 0 59 -54t-59 -54h-862q-59 0 -59 54t59 54z" />
    <glyph glyph-name="quoteleft" unicode="&#x2018;" horiz-adv-x="316" 
d="M246 512q0 -34 -24 -58t-58 -24q-46 0 -70 35.5t-24 90.5q0 48 12.5 77.5t38.5 56.5q14 13 42 28t49 15q16 0 25 -8.5t9 -21.5q0 -14 -16 -23.5t-35 -16t-36 -27.5t-19 -56q16 9 34 9q33 0 52.5 -22.5t19.5 -54.5z" />
    <glyph glyph-name="quoteright" unicode="&#x2019;" horiz-adv-x="316" 
d="M70 651q0 34 24 58t58 24q46 0 70 -35.5t24 -90.5q0 -48 -12.5 -77.5t-38.5 -56.5q-14 -13 -42 -28t-49 -15q-16 0 -25 8.5t-9 21.5q0 14 16 23.5t35 16t36 27.5t19 56q-16 -9 -34 -9q-33 0 -52.5 22.5t-19.5 54.5z" />
    <glyph glyph-name="quotesinglbase" unicode="&#x201a;" horiz-adv-x="316" 
d="M70 75q0 34 24 58t58 24q46 0 70 -35.5t24 -90.5q0 -48 -12.5 -77.5t-38.5 -56.5q-14 -13 -42 -28t-49 -15q-16 0 -25 8.5t-9 21.5q0 14 16 23.5t35 16t36 27.5t19 56q-16 -9 -34 -9q-33 0 -52.5 22.5t-19.5 54.5z" />
    <glyph glyph-name="quotedblleft" unicode="&#x201c;" horiz-adv-x="537" 
d="M243 512q0 -34 -24 -58t-58 -24q-46 0 -70 35.5t-24 90.5q0 48 12.5 77.5t38.5 56.5q14 13 42 28t49 15q16 0 25 -8.5t9 -21.5q0 -14 -16 -23.5t-35 -16t-36 -27.5t-19 -56q16 9 34 9q33 0 52.5 -22.5t19.5 -54.5zM470 512q0 -34 -24 -58t-58 -24q-46 0 -70 35.5
t-24 90.5q0 48 12.5 77.5t38.5 56.5q14 13 42 28t49 15q16 0 25 -8.5t9 -21.5q0 -14 -16 -23.5t-35 -16t-36 -27.5t-19 -56q16 9 34 9q33 0 52.5 -22.5t19.5 -54.5z" />
    <glyph glyph-name="quotedblright" unicode="&#x201d;" horiz-adv-x="537" 
d="M67 651q0 34 24 58t58 24q46 0 70 -35.5t24 -90.5q0 -48 -12.5 -77.5t-38.5 -56.5q-14 -13 -42 -28t-49 -15q-16 0 -25 8.5t-9 21.5q0 14 16 23.5t35 16t36 27.5t19 56q-16 -9 -34 -9q-33 0 -52.5 22.5t-19.5 54.5zM294 651q0 34 24 58t58 24q46 0 70 -35.5t24 -90.5
q0 -48 -12.5 -77.5t-38.5 -56.5q-14 -13 -42 -28t-49 -15q-16 0 -25 8.5t-9 21.5q0 14 16 23.5t35 16t36 27.5t19 56q-16 -9 -34 -9q-33 0 -52.5 22.5t-19.5 54.5z" />
    <glyph glyph-name="quotedblbase" unicode="&#x201e;" horiz-adv-x="537" 
d="M67 75q0 34 24 58t58 24q46 0 70 -35.5t24 -90.5q0 -48 -12.5 -77.5t-38.5 -56.5q-14 -13 -42 -28t-49 -15q-16 0 -25 8.5t-9 21.5q0 14 16 23.5t35 16t36 27.5t19 56q-16 -9 -34 -9q-33 0 -52.5 22.5t-19.5 54.5zM294 75q0 34 24 58t58 24q46 0 70 -35.5t24 -90.5
q0 -48 -12.5 -77.5t-38.5 -56.5q-14 -13 -42 -28t-49 -15q-16 0 -25 8.5t-9 21.5q0 14 16 23.5t35 16t36 27.5t19 56q-16 -9 -34 -9q-33 0 -52.5 22.5t-19.5 54.5z" />
    <glyph glyph-name="dagger" unicode="&#x2020;" horiz-adv-x="574" 
d="M217 -95v495h-129q-25 0 -42.5 16.5t-17.5 40.5t17.5 40.5t42.5 16.5h129v142q0 35 19.5 56t50.5 21t50.5 -21t19.5 -56v-142h129q25 0 42.5 -16.5t17.5 -40.5t-17.5 -40.5t-42.5 -16.5h-129v-495q0 -35 -19.5 -56t-50.5 -21t-50.5 21t-19.5 56z" />
    <glyph glyph-name="daggerdbl" unicode="&#x2021;" horiz-adv-x="574" 
d="M221 529v132q0 32 18 52t48 20t48 -20t18 -52v-132h130q25 0 42 -13.5t17 -40.5t-17 -40.5t-42 -13.5h-130v-281h130q25 0 42 -13.5t17 -40.5t-17 -40.5t-42 -13.5h-130v-132q0 -32 -18 -52t-48 -20t-48 20t-18 52v132h-130q-25 0 -42 13.5t-17 40.5t17 40.5t42 13.5h130
v281h-130q-25 0 -42 13.5t-17 40.5t17 40.5t42 13.5h130z" />
    <glyph glyph-name="bullet" unicode="&#x2022;" horiz-adv-x="500" 
d="M70 360q0 74 53 127t127 53t127 -53t53 -127t-53 -127t-127 -53t-127 53t-53 127z" />
    <glyph glyph-name="ellipsis" unicode="&#x2026;" horiz-adv-x="1000" 
d="M85 75q0 34 24 58t58 24t58 -24t24 -58t-24 -58t-58 -24t-58 24t-24 58zM418 75q0 34 24 58t58 24t58 -24t24 -58t-24 -58t-58 -24t-58 24t-24 58zM751 75q0 34 24 58t58 24t58 -24t24 -58t-24 -58t-58 -24t-58 24t-24 58z" />
    <glyph glyph-name="perthousand" unicode="&#x2030;" horiz-adv-x="1000" 
d="M115 539q0 -100 42 -100t42 100t-42 100t-42 -100zM13 539q0 71 35 121.5t109 50.5t109 -50.5t35 -121.5q0 -74 -34.5 -123t-109.5 -49t-109.5 49t-34.5 123zM356 159q0 71 35 121.5t109 50.5t109 -50.5t35 -121.5q0 -74 -34.5 -123t-109.5 -49t-109.5 49t-34.5 123z
M458 159q0 -100 42 -100t42 100t-42 100t-42 -100zM699 159q0 71 35 121.5t109 50.5t109 -50.5t35 -121.5q0 -74 -34.5 -123t-109.5 -49t-109.5 49t-34.5 123zM801 159q0 -100 42 -100t42 100t-42 100t-42 -100zM116 29l360 680q15 28 39 28q16 0 27.5 -10.5t11.5 -23.5
q0 -14 -11 -34l-360 -680q-15 -28 -39 -28q-16 0 -27.5 10.5t-11.5 23.5q0 14 11 34z" />
    <glyph glyph-name="guilsinglleft" unicode="&#x2039;" horiz-adv-x="370" 
d="M262 332l-82 -56l82 -56q32 -21 32 -52q0 -21 -13.5 -36.5t-33.5 -15.5q-16 0 -39 16l-98 71q-34 24 -34 73t34 73l98 71q23 16 39 16q20 0 33.5 -15.5t13.5 -36.5q0 -31 -32 -52z" />
    <glyph glyph-name="guilsinglright" unicode="&#x203a;" horiz-adv-x="370" 
d="M108 220l82 56l-82 56q-32 21 -32 52q0 21 13.5 36.5t33.5 15.5q16 0 39 -16l98 -71q34 -24 34 -73t-34 -73l-98 -71q-23 -16 -39 -16q-20 0 -33.5 15.5t-13.5 36.5q0 31 32 52z" />
    <glyph glyph-name="fraction" unicode="&#x2044;" horiz-adv-x="167" 
d="M-130 29l360 680q15 28 39 28q16 0 27.5 -10.5t11.5 -23.5q0 -14 -11 -34l-360 -680q-15 -28 -39 -28q-16 0 -27.5 10.5t-11.5 23.5q0 14 11 34z" />
    <glyph glyph-name="Euro" unicode="&#x20ac;" horiz-adv-x="612" 
d="M621 598q0 -30 -19 -52.5t-49 -22.5q-23 0 -47 16t-52.5 32t-62.5 16q-103 0 -146 -123h206q18 0 28 -1.5t19 -10.5t9 -26q0 -25 -14.5 -33t-41.5 -8h-220q-2 -16 -2 -24v-32h178q18 0 28 -1.5t19 -10.5t9 -26q0 -25 -14.5 -33t-41.5 -8h-168q36 -137 154 -137
q38 0 90.5 29.5t76.5 29.5q27 0 43 -19.5t16 -46.5q0 -34 -26 -59.5t-65.5 -38t-76 -18t-68.5 -5.5q-128 0 -205 69t-99 196h-23q-26 0 -40.5 7.5t-14.5 31.5q0 12 5 20t10 12t17.5 6t17.5 2h20v28q0 19 1 28h-18q-26 0 -40 7.5t-14 31.5q0 10 2.5 17.5t8.5 11.5t11 7
t14.5 3.5t15 1t16.5 0t15 -0.5q28 120 107 188t200 68q30 0 66.5 -6.5t75 -19.5t64 -38t25.5 -58z" />
    <glyph glyph-name="afii61289" unicode="&#x2113;" horiz-adv-x="557" 
d="M480 187l54 -54q-77 -142 -226 -142q-86 0 -133 45t-58 119v10q-5 -4 -25 -18.5t-31 -22.5l-34 67q12 10 42.5 32.5t45.5 35.5v248q0 132 52.5 196t136.5 64q75 0 113.5 -50.5t38.5 -127.5q0 -87 -55.5 -172t-162.5 -180l1 -34q1 -53 29 -82t70 -29q81 0 142 95zM238 520
v-170q133 138 133 241q0 88 -62 88q-29 0 -50 -37.5t-21 -121.5z" />
    <glyph glyph-name="trademark" unicode="&#x2122;" horiz-adv-x="1000" 
d="M129 364v266h-63q-25 0 -37 13.5t-12 31.5t12 31.5t37 13.5h247q25 0 36.5 -13.5t11.5 -31.5t-11.5 -31.5t-36.5 -13.5h-64v-266q0 -35 -20 -50t-40 -15t-40 15t-20 50zM803 364v186h-2l-73 -198q-20 -53 -60 -53t-60 53l-73 198h-2v-186q0 -35 -20 -50t-40 -15t-40 15
t-20 50v272q0 48 25.5 69t57.5 21q76 0 107 -77l65 -167l65 167q31 77 107 77q32 0 57.5 -21t25.5 -69v-272q0 -35 -20 -50t-40 -15t-40 15t-20 50z" />
    <glyph glyph-name="Omega" unicode="&#x2126;" horiz-adv-x="783" 
d="M196 100v3q-59 47 -98.5 119t-39.5 163q0 136 94.5 230t241.5 94q100 0 177 -48t114.5 -119.5t37.5 -152.5q0 -93 -39.5 -166.5t-99.5 -119.5v-3h154v-100h-289v75q63 37 103.5 108.5t40.5 180.5q0 100 -53.5 171.5t-145.5 71.5q-91 0 -148 -70t-57 -177
q0 -101 41.5 -176.5t102.5 -108.5v-75h-289v100h152z" />
    <glyph glyph-name="estimated" unicode="&#x212e;" horiz-adv-x="873" 
d="M838 339h-651q-5 0 -5 -4v-197q0 -13 8 -23q104 -107 246 -107q155 0 260 120h57q-54 -65 -138 -102.5t-180 -37.5q-166 0 -283.5 105.5t-117.5 254.5q0 151 117.5 257t283.5 106q167 0 285 -106t118 -257v-9zM690 365v198q0 14 -9 23q-106 103 -245 103
q-141 0 -245 -106q-9 -9 -9 -25v-193q0 -7 5 -7h499q4 0 4 7z" />
    <glyph glyph-name="partialdiff" unicode="&#x2202;" horiz-adv-x="617" 
d="M109 636l-38 90q81 59 198 59q126 0 211.5 -102t85.5 -281q0 -182 -81 -296.5t-222 -114.5q-73 0 -125.5 38.5t-75.5 91t-23 108.5q0 115 66.5 187t166.5 72q61 0 105 -30t62 -60h1q1 9 1 35q0 105 -52.5 177.5t-135.5 72.5q-78 0 -144 -47zM276 93h1q59 0 99.5 61.5
t50.5 141.5q-10 32 -45.5 62.5t-83.5 30.5q-56 0 -94 -48t-38 -115q0 -57 30.5 -95t79.5 -38z" />
    <glyph glyph-name="Delta" unicode="&#x2206;" horiz-adv-x="713" 
d="M28 0v73l254 641h154l248 -640v-74h-656zM162 100h380l-126 313q-7 23 -31 88t-30 88h-4q-5 -17 -26.5 -77t-29.5 -84z" />
    <glyph glyph-name="product" unicode="&#x220f;" horiz-adv-x="774" 
d="M749 586h-113v-682h-126v682h-246v-682h-126v682h-114v111h725v-111z" />
    <glyph glyph-name="summation" unicode="&#x2211;" horiz-adv-x="605" 
d="M585 -96h-562v77l265 318l-253 313v85h532v-106h-358v-4l224 -270l-246 -297v-3h398v-113z" />
    <glyph glyph-name="minus" unicode="&#x2212;" horiz-adv-x="600" 
d="M87 343h426q31 0 50.5 -16.5t19.5 -43.5t-19.5 -43.5t-50.5 -16.5h-426q-30 0 -50 18t-20 42q0 27 19.5 43.5t50.5 16.5z" />
    <glyph glyph-name="uni2215" unicode="&#x2215;" horiz-adv-x="167" 
d="M-130 29l360 680q15 28 39 28q16 0 27.5 -10.5t11.5 -23.5q0 -14 -11 -34l-360 -680q-15 -28 -39 -28q-16 0 -27.5 10.5t-11.5 23.5q0 14 11 34z" />
    <glyph glyph-name="uni2219" unicode="&#x2219;" horiz-adv-x="306" 
d="M65 290q0 37 25.5 62.5t62.5 25.5t62.5 -25.5t25.5 -62.5t-25.5 -62.5t-62.5 -25.5t-62.5 25.5t-25.5 62.5z" />
    <glyph glyph-name="radical" unicode="&#x221a;" horiz-adv-x="634" 
d="M646 833l-245 -977h-103l-164 441l-79 -31l-22 68l176 72l119 -336q4 -14 22 -80h1q1 6 4 22.5t6.5 32.5t6.5 30l187 758h91z" />
    <glyph glyph-name="infinity" unicode="&#x221e;" horiz-adv-x="813" 
d="M762 289v-1q0 -80 -50 -129t-117 -49q-94 0 -188 119q-48 -58 -92 -88.5t-102 -30.5q-66 0 -114.5 49t-48.5 124q0 77 49 126.5t123 49.5q55 0 99.5 -30t89.5 -87q2 3 13.5 15.5t15.5 16.5t15 15.5t16.5 16t17 14t19.5 13.5t20 10.5t22.5 9t23.5 4.5t27 2q70 0 115.5 -47
t45.5 -123zM222 179h2q21 0 41 8t40.5 27t31.5 30t32 36q-23 31 -33.5 43t-31 32.5t-41 28.5t-45.5 8q-44 0 -70.5 -31t-26.5 -79q0 -43 29 -73t72 -30zM594 392h-1q-18 0 -35.5 -6.5t-35 -21t-27 -23.5t-27.5 -30t-21 -24q50 -61 81.5 -84.5t69.5 -23.5q42 0 67 32.5
t25 71.5q0 48 -26.5 78.5t-69.5 30.5z" />
    <glyph glyph-name="integral" unicode="&#x222b;" horiz-adv-x="406" 
d="M389 848l-14 -83q-18 9 -40 9q-35 0 -54 -26q-30 -37 -30 -168q0 -79 8 -235t8 -246q0 -132 -39 -199q-40 -71 -131 -71q-52 0 -82 17l17 86q27 -11 47 -11q33 0 48 21q32 40 32 157q0 91 -8.5 250.5t-8.5 242.5q0 86 14.5 138t48.5 86q42 45 119 45q39 0 65 -13z" />
    <glyph glyph-name="approxequal" unicode="&#x2248;" horiz-adv-x="593" 
d="M504 455l46 -43q-60 -104 -145 -104q-31 0 -56 9.5t-65 32.5q-59 34 -94 34q-22 0 -42.5 -12t-32 -25t-29.5 -37l-45 43q25 46 66.5 74.5t88.5 28.5q9 0 18.5 -1t16.5 -2.5t16 -4.5t14 -5t14 -6.5l12 -6t12 -6.5t11 -6q3 -2 8 -5q50 -29 76 -32h11q51 0 99 74zM504 263
l46 -43q-60 -104 -146 -104q-29 0 -53.5 9.5t-66.5 32.5q-59 35 -94 35q-22 0 -42.5 -12.5t-32 -25t-29.5 -37.5l-45 43q25 46 66.5 75t88.5 29q12 0 24.5 -2t21 -4.5t20 -7.5t16.5 -7.5t17 -9t14 -7.5q5 -3 18.5 -11t20 -11t17 -7.5t20 -6.5t20.5 -2q30 0 52 18t47 56z" />
    <glyph glyph-name="notequal" unicode="&#x2260;" horiz-adv-x="593" 
d="M433 520l-42 -93h150v-73h-179l-65 -142h244v-72h-273l-55 -121l-58 25l44 96h-147v72h176l64 142h-240v73h269l54 118z" />
    <glyph glyph-name="lessequal" unicode="&#x2264;" horiz-adv-x="593" 
d="M539 100l-482 230v78l481 230v-84l-406 -183v-2l407 -185v-84zM542 -12h-490v74h490v-74z" />
    <glyph glyph-name="greaterequal" unicode="&#x2265;" horiz-adv-x="593" 
d="M58 638l482 -230v-78l-482 -230v84l406 184v3l-406 183v84zM539 -12h-486v74h486v-74z" />
    <glyph glyph-name="lozenge" unicode="&#x25ca;" horiz-adv-x="634" 
d="M581 348l-216 -398h-100l-212 398l215 399h100zM469 345l-132 250q-12 27 -19 54h-3q-8 -27 -20 -54l-131 -245l132 -252q15 -35 19 -52h4q6 28 18 51z" />
    </font>
</defs>
</svg>
